<?xml version="1.0" standalone="no"?>
<!DOCTYPE svg PUBLIC "-//W3C//DTD SVG 1.1//EN" "http://www.w3.org/Graphics/SVG/1.1/DTD/svg11.dtd" >
<svg xmlns="http://www.w3.org/2000/svg">
<metadata>Generated by IcoMoon</metadata>
<defs>
<font id="icomoon" horiz-adv-x="1024">
<font-face units-per-em="1024" ascent="960" descent="-64" />
<missing-glyph horiz-adv-x="1024" />
<glyph unicode="&#x20;" horiz-adv-x="512" d="" />
<glyph unicode="&#xe313;" glyph-name="keyboard_arrow_down" d="M316 604.667l196-196 196 196 60-60-256-256-256 256z" />
<glyph unicode="&#xe314;" glyph-name="keyboard_arrow_left" d="M658 252.667l-60-60-256 256 256 256 60-60-196-196z" />
<glyph unicode="&#xe315;" glyph-name="keyboard_arrow_right" d="M366 240.667l196 196-196 196 60 60 256-256-256-256z" />
<glyph unicode="&#xe316;" glyph-name="keyboard_arrow_up" d="M316 280.667l-60 60 256 256 256-256-60-60-196 196z" />
<glyph unicode="&#xe600;" glyph-name="car" d="M1008 674.212c0-9.626 0-19.254 0-28.88-3.144-22.428-17.302-33.836-38.358-38.356-0.624-0.134-1.236-0.356-1.828-0.598-15.528-6.322-16.416-8.176-8.47-22.988 22.83-42.562 35.522-87.68 35.838-136.194 0.232-35.61 1.77-71.226 1.384-106.824-0.33-30.432-1.442-60.954-4.452-91.212-1.45-14.576-7.976-28.664-12.39-42.916-1.804-5.824-5.796-11.47-5.89-17.244-0.51-30.792 0.014-61.598-0.050-92.4-0.042-20.776-13.758-34.452-34.29-34.494-28.556-0.058-57.114-0.118-85.672 0.020-21.544 0.104-33.894 12.536-34.072 34.236-0.182 22.138-0.086 44.278-0.162 66.418-0.012 3.404-0.3 6.808-0.492 10.886-101.82-3.362-202.754-9.304-303.686-9.296-101.204 0.008-202.408 5.952-304.576 9.326 0-26.032 0.038-50.978-0.010-75.924-0.046-23.592-11.978-35.606-35.502-35.666-27.274-0.072-54.548-0.024-81.82-0.016-24.236 0.008-37.1 13.042-37.026 37.588 0.076 25.348 0.252 50.694 0.314 76.042 0.030 12.322 1.56 24.87-8.782 34.876-2.722 2.634-3.912 7.42-4.65 11.43-2.832 15.412-7.174 30.884-7.386 46.382-0.872 63.81-0.9 127.642-0.162 191.454 0.19 16.508 3.502 33.13 6.76 49.422 5.64 28.21 17.488 54.196 31.272 79.274 3.82 6.95 2.488 11.54-4.584 14.482-7.974 3.316-16.68 5.346-23.928 9.796-6.72 4.124-14.132 9.646-17.38 16.406-7.87 16.382-7.482 34.186-3.172 51.76 2.118 8.636 7.336 12.354 16.736 12.162 25.658-0.526 51.4 0.942 76.976-0.598 15.526-0.934 22.062 5.030 29.222 18.23 16.138 29.752 34.41 58.46 53.408 86.512 12.722 18.784 31.364 30.082 53.952 36.008 55.024 14.432 110.814 23.874 167.3 30.070 118.234 12.97 234.118-0.294 348.952-28.856 26.85-6.678 48.144-20.268 62.696-42.734 19.29-29.782 36.644-60.832 54.338-91.618 2.938-5.11 5.562-7.396 11.594-7.332 29.516 0.31 59.042-0.218 88.55 0.338 9.944 0.186 14.87-4.008 17.238-12.88 0.554-2.084 1.496-4.066 2.26-6.092zM146.236 577.294c246.544 13.708 491.226 13.472 737.254 0.086-2.714 6.186-4.432 10.624-6.554 14.858-27.974 55.806-56.004 111.582-84.022 167.366-8.44 16.806-22.016 27.748-40.094 31.776-29.024 6.466-58.080 13.622-87.522 17.216-85.498 10.442-171.36 12.772-257.322 6.128-44.816-3.464-89.116-9.932-131.804-24.988-19.98-7.046-36.34-18.010-47.812-36.454-34.024-54.696-57.264-114.312-82.124-175.988zM871.068 479.742c-0.038 0.426-0.078 0.852-0.116 1.278-27.76-2.352-55.538-4.514-83.274-7.106-30.442-2.844-48.492-21.326-58.464-48.594-6.362-17.394-1.484-24.496 16.768-26.422 43.216-4.56 86.458-3.4 129.612 0.632 9.016 0.842 19.322 2.418 26.326 7.434 18.466 13.222 30.326 31.986 35.882 54.158 3.044 12.15-2.262 18.448-14.79 18.576-17.314 0.176-34.63 0.044-51.944 0.044zM163.090 481.604c-0.064-0.62-0.128-1.24-0.192-1.86-17.944 0-35.888 0.12-53.83-0.038-13.774-0.122-19.818-7.264-13.99-19.7 6.27-13.376 15.14-25.704 24.038-37.622 6.702-8.976 16.63-13.534 28.142-14.714 48.57-4.976 97.156-6.384 145.772-1.012 13.902 1.536 18.144 7.862 13.162 21.22-8.382 22.47-22.724 40.376-47.692 43.95-31.622 4.528-63.592 6.628-95.41 9.776z" />
<glyph unicode="&#xe601;" glyph-name="hotel" d="M1013.466-18.148c-91.676 0-183.352 0-275.834 0 0 8.514 0 16.418 0 25.544 7.696 0 15.43-0.144 23.156 0.034 12.196 0.28 19.044 6.626 19.136 18.736 0.248 32.636 0.266 65.278-0.012 97.914-0.104 12.248-6.792 18.344-19.138 18.624-7.454 0.17-14.914 0.032-23.156 0.032 0 14.198 0 27.7 0 42.626 7.618 0 15.326-0.102 23.032 0.024 12.836 0.208 19.236 6.374 19.312 19.386 0.186 31.984 0.178 63.972 0.008 95.956-0.072 13.316-6.702 19.664-20.014 19.88-7.156 0.116-14.316 0.020-22.3 0.020 0 13.892 0 27.336 0 42.158 7.122 0 14.186-0.136 21.242 0.028 14.8 0.342 21.026 6.362 21.090 20.876 0.138 31.332 0.128 62.666 0.004 93.998-0.056 13.96-6.464 20.366-20.278 20.682-7.14 0.162-14.286 0.028-22.152 0.028 0 13.912 0 27.146 0 42.046 5.36 0 11.064-0.006 16.77 0 20.658 0.022 25.688 4.94 25.698 25.198 0.014 28.722 0.018 57.444-0.002 86.166-0.012 18.93-5.008 24.008-23.576 24.054-6.124 0.016-12.246 0.002-18.99 0.002 0 17.166 0 33.306 0 50.804 3.92 0 7.704 0 11.488 0 70.5 0 141.006-0.55 211.494 0.278 27.364 0.322 45.378-9.488 53.024-35.896-0.002-236.4-0.002-472.8-0.002-709.198zM961.248 430.2c0 15.976 0.132 31.952-0.040 47.926-0.152 14.074-6.228 20.132-20.466 20.23-23.8 0.164-47.602 0.194-71.4-0.018-14.126-0.126-20.318-6.48-20.352-20.394-0.076-31.298-0.068-62.598-0.006-93.896 0.030-14.844 5.77-21.010 20.546-21.182 23.798-0.274 47.602-0.256 71.4-0.008 14.35 0.15 20.116 6.102 20.28 20.394 0.178 15.646 0.038 31.298 0.038 46.948zM848.964 253.28c0-15.978-0.074-31.958 0.022-47.936 0.082-13.578 6.182-19.878 19.562-19.948 24.456-0.126 48.914-0.124 73.372-0.002 13.022 0.064 19.186 6.048 19.26 19.146 0.182 32.282 0.188 64.568-0.006 96.85-0.078 12.826-6.572 19.112-19.434 19.192-24.456 0.148-48.916 0.168-73.372-0.010-12.776-0.092-19.25-6.666-19.368-19.354-0.148-15.98-0.034-31.96-0.036-47.938zM848.966 608.524c0-15.978-0.098-31.956 0.030-47.932 0.106-13.378 6.34-19.93 19.746-20.070 24.126-0.25 48.258-0.222 72.386-0.016 13.668 0.118 19.966 6.248 20.046 19.684 0.196 32.28 0.198 64.562-0.008 96.84-0.080 12.59-6.2 18.664-18.656 18.762-24.78 0.194-49.562 0.194-74.342 0.002-12.996-0.1-19.062-6.364-19.17-19.342-0.134-15.972-0.032-31.95-0.032-47.928zM848.964 75.574c0-15.978-0.072-31.956 0.022-47.932 0.080-13.482 6.33-20.104 19.502-20.198 24.454-0.172 48.912-0.16 73.366-0.006 12.826 0.082 19.248 6.38 19.322 19.288 0.186 32.28 0.2 64.564-0.014 96.844-0.088 13.088-6.258 19.032-19.36 19.116-24.454 0.158-48.912 0.172-73.366-0.006-13.324-0.096-19.352-6.488-19.446-20.152-0.108-15.65-0.026-31.302-0.026-46.954zM710.172-17.498c-132.202 0-263.914 0-396.482 0-0.172 3.75-0.47 7.222-0.472 10.696-0.022 296.088-0.028 592.174-0.008 888.262 0.002 31.662 16.754 48.516 48.154 48.522 100.546 0.022 201.092 0.028 301.636-0.002 30.262-0.010 47.632-17.040 47.638-47.102 0.052-297.066 0.034-594.132 0.014-891.2 0-2.876-0.294-5.752-0.48-9.176zM546.67 456.916c0-15.974-0.070-31.95 0.020-47.922 0.082-14.498 5.646-20.524 19.876-20.67 24.122-0.248 48.25-0.224 72.372-0.014 13.514 0.118 19.846 6.53 19.892 19.812 0.11 31.948 0.116 63.898-0.006 95.846-0.048 12.562-5.858 19.43-18.050 19.664-25.418 0.488-50.858 0.474-76.276-0.010-11.942-0.226-17.606-6.742-17.764-18.784-0.212-15.97-0.054-31.948-0.064-47.922zM477.196 455.89c0 15.974 0.14 31.948-0.042 47.92-0.156 13.642-5.98 19.772-19.736 19.952-24.12 0.312-48.248 0.312-72.368 0.010-14.1-0.178-19.99-6.562-20.024-20.734-0.074-31.296-0.058-62.59-0.008-93.886 0.024-14.6 5.994-20.734 20.804-20.85 23.47-0.186 46.944-0.154 70.414-0.018 14.946 0.088 20.826 5.954 20.94 20.664 0.12 15.646 0.026 31.294 0.020 46.942zM477.198 277.652c-0.010 0-0.020 0-0.030 0 0 16.63 0.202 33.262-0.068 49.886-0.19 11.7-6.538 18.302-18.192 18.442-25.104 0.302-50.216 0.3-75.318-0.002-12.132-0.146-18.49-6.94-18.54-19.186-0.132-32.28-0.12-64.56-0.008-96.842 0.044-12.836 6.298-19.092 19.304-19.182 24.454-0.17 48.91-0.154 73.364-0.014 13.556 0.078 19.328 6.052 19.456 19.942 0.144 15.652 0.032 31.304 0.032 46.956zM546.668 278.666c0-15.978-0.090-31.956 0.028-47.934 0.102-13.916 5.792-19.878 19.382-19.966 24.454-0.158 48.912-0.152 73.366-0.004 12.988 0.078 19.324 6.32 19.376 19.16 0.132 32.282 0.15 64.564-0.012 96.844-0.064 12.708-6.564 19.144-19.532 19.258-24.454 0.216-48.912 0.218-73.366-0.006-12.866-0.118-19.044-6.51-19.19-19.42-0.182-15.976-0.044-31.956-0.052-47.932zM546.668 634.156c0-15.976-0.086-31.954 0.026-47.928 0.1-14.036 6.196-20.192 20.33-20.276 23.8-0.14 47.602-0.134 71.404-0.002 13.972 0.078 20.37 6.486 20.41 20.358 0.090 31.626 0.098 63.252-0.004 94.878-0.044 13.676-6.040 19.958-19.514 20.072-24.452 0.206-48.908 0.206-73.358-0.010-13.264-0.118-19.086-6.030-19.24-19.166-0.19-15.972-0.046-31.95-0.054-47.926zM477.19 633.984c0 15.976 0.154 31.952-0.048 47.926-0.166 13.204-6.010 19.22-19.106 19.336-24.45 0.218-48.904 0.216-73.356 0.014-13.59-0.112-19.604-6.326-19.646-19.898-0.096-31.624-0.076-63.25-0.010-94.874 0.030-13.98 6.286-20.434 20.2-20.526 23.798-0.158 47.6-0.126 71.4-0.016 14.166 0.066 20.404 6.174 20.538 20.116 0.154 15.97 0.036 31.948 0.028 47.922zM365.004 100.472c0-15.652-0.060-31.306 0.018-46.958 0.072-14.222 6.118-20.602 19.974-20.684 24.13-0.142 48.262-0.14 72.392-0.002 13.53 0.078 19.69 6.174 19.756 19.798 0.158 31.956 0.146 63.914 0.006 95.87-0.060 13.594-6.162 19.524-19.85 19.586-24.13 0.108-48.262 0.108-72.392-0.004-13.572-0.064-19.784-6.254-19.878-19.674-0.112-15.974-0.026-31.954-0.026-47.932zM546.674 811.126c0-15.976-0.136-31.954 0.042-47.93 0.146-13.192 6.102-19.206 19.128-19.28 24.454-0.136 48.908-0.12 73.362-0.010 13.312 0.060 19.582 6.408 19.626 19.966 0.108 31.952 0.118 63.906-0.006 95.858-0.050 12.774-6.546 19.27-19.314 19.346-24.454 0.146-48.908 0.142-73.362 0.002-13.402-0.078-19.348-6.276-19.452-20.024-0.12-15.974-0.030-31.95-0.024-47.928zM365.004 811.77c0-15.976-0.084-31.952 0.026-47.926 0.094-13.558 6.256-19.868 19.63-19.932 24.452-0.116 48.906-0.12 73.358 0.002 12.54 0.062 18.994 6.046 19.078 18.346 0.222 32.928 0.218 65.858 0 98.786-0.076 11.598-6.718 17.934-18.478 18.018-24.778 0.178-49.558 0.166-74.334 0.010-12.776-0.080-19.142-6.582-19.246-19.378-0.134-15.974-0.034-31.95-0.034-47.926zM546.678 101.006c0-16.306-0.14-32.612 0.044-48.916 0.146-12.966 6.3-19.16 19.272-19.248 24.456-0.166 48.916-0.17 73.372 0.002 12.932 0.092 19.384 6.45 19.444 19.246 0.154 32.284 0.144 64.568 0.008 96.852-0.054 12.778-6.498 19.060-19.46 19.13-24.458 0.132-48.916 0.136-73.374 0-13.062-0.072-19.136-6.124-19.274-19.132-0.168-15.974-0.038-31.956-0.032-47.934zM286.528 227.404c0-14.42 0-27.638 0-42.060-7.746 0-15.156 0.16-22.556-0.034-13.43-0.354-19.996-6.676-20.068-19.932-0.174-31.994-0.162-63.99-0.008-95.984 0.062-12.96 6.35-19.11 19.282-19.416 7.446-0.176 14.9-0.032 23.104-0.032 0-22.826 0-44.804 0-67.406-91.578 0-183.11 0-275.746 0 0 3.816 0 7.306 0 10.794 0 183.154-0.004 366.306 0.004 549.46 0.002 31.58 16.758 48.466 48.186 48.48 72.478 0.032 144.956 0.010 217.434 0.010 3.208 0 6.416 0 10.24 0 0-16.954 0-33.118 0-50.848-7.632 0-15.318 0.106-23-0.024-12.976-0.22-19.426-6.34-19.496-19.204-0.174-31.994-0.16-63.99-0.008-95.984 0.064-13.412 6.544-19.758 19.826-20.114 7.172-0.192 14.346-0.234 21.518-0.38 0.25-0.006 0.492-0.404 1.272-1.090 0-12.768 0-26.010 0-40.876-7.5 0-14.854 0.118-22.2-0.026-14.208-0.276-20.386-6.31-20.434-20.322-0.108-31.668-0.124-63.336 0.012-95.004 0.056-13.246 6.524-19.594 19.942-19.974 7.162-0.2 14.338-0.034 22.696-0.034zM62.63 473.534c0-16.302-0.16-32.606 0.050-48.906 0.168-13.022 6.316-19.35 19.17-19.462 24.452-0.214 48.906-0.202 73.358-0.014 13.23 0.102 19.604 6.69 19.656 20.15 0.122 31.952 0.136 63.904-0.010 95.856-0.058 12.826-6.504 19.174-19.35 19.244-24.452 0.134-48.906 0.134-73.36 0-13.522-0.074-19.366-6.090-19.492-19.916-0.144-15.652-0.032-31.302-0.022-46.952zM174.904 294.488c0 16.298 0.126 32.598-0.042 48.894-0.128 12.468-6.222 19.136-18.338 19.274-25.096 0.288-50.198 0.28-75.294 0.006-12.5-0.136-18.482-6.342-18.546-18.902-0.166-32.27-0.154-64.54-0.008-96.81 0.058-13.032 6.094-19.306 19.16-19.46 24.444-0.286 48.894-0.25 73.34-0.028 13.322 0.12 19.588 6.696 19.7 20.086 0.13 15.648 0.028 31.294 0.028 46.94zM62.622 117.258c0-15.974-0.136-31.95 0.042-47.922 0.148-13.2 6.004-19.232 19.076-19.336 24.448-0.196 48.9-0.166 73.35-0.022 13.538 0.080 19.728 6.284 19.778 19.8 0.116 31.622 0.108 63.244 0.004 94.868-0.046 13.996-6.36 20.532-20.222 20.648-23.796 0.198-47.598 0.18-71.394 0.010-14.596-0.104-20.496-6.252-20.61-21.1-0.12-15.65-0.026-31.298-0.024-46.946z" />
<glyph unicode="&#xe602;" glyph-name="other" d="M529.312 622.96c-111.674 0.954-204.524 9.13-295.042 35.394-33.922 9.844-66.944 22.148-96.376 42.178-19.004 12.934-38.060 27.568-40.45 52.132-2.44 25.076-1.652 50.606-0.424 75.846 0.776 15.972 11.786 27.516 23.548 37.484 25.868 21.924 56.666 34.434 88.35 44.826 62.56 20.52 127.158 30.624 192.552 36.124 53.82 4.526 107.702 7.158 161.738 4.088 90.892-5.164 181.052-14.576 267.432-45.866 25.152-9.11 49.336-20.28 70.24-37.426 16.51-13.544 27.478-29.252 25.182-52.502-1.674-16.954-1.352-34.284-0.058-51.304 1.498-19.714-6.888-34.314-20.216-47.080-26.090-24.986-58.44-38.87-91.826-50.512-61.276-21.368-124.788-32.218-189.2-37.718-37.672-3.214-75.504-4.52-95.45-5.664zM925.734 180.46c0-13.172-0.858-26.41 0.188-39.498 1.854-23.212-6.866-42.492-20.39-60.168-23.752-31.046-55.36-52.28-89.554-69.914-64.256-33.14-133.192-50.582-204.432-60.29-53.734-7.322-107.746-8.138-161.548-3.826-89.3 7.156-175.594 26.808-254.824 70.81-29.856 16.582-57.108 36.548-77.974 64.162-14.358 19.002-21.856 40.146-21.468 64.224 0.446 27.652 0.080 55.316 0.136 82.976 0.006 3.266-0.032 6.662 0.798 9.77 1.666 6.234 5.438 7.968 10.94 3.806 1.040-0.786 1.964-1.772 2.788-2.792 32.654-40.388 77.666-61.042 125.052-77.418 64.49-22.286 131.272-33 199.152-37.886 88.422-6.364 176.298-2.646 263.42 14.196 56.796 10.98 112.034 26.796 162.442 56.32 18.594 10.89 35.488 23.874 48.976 40.922 1.624 2.054 3.388 4.2 5.552 5.57 2.314 1.466 5.664 3.38 7.656 2.644 1.696-0.626 2.924-4.724 2.958-7.304 0.246-18.766 0.134-37.536 0.132-56.304zM511.77 399.27c-91.944 0.232-182.642 9.654-270.692 37.676-36.526 11.624-71.756 26.314-102.472 49.864-21.64 16.592-40.21 35.96-42.166 64.99-1.392 20.652-0.524 41.46-0.59 62.2-0.056 18.108-0.208 36.222 0.184 54.322 0.068 3.166 1.878 7.272 4.282 9.038 1.416 1.040 6.498-0.816 8.386-2.822 44.252-47.010 103.078-64.576 162.768-79.106 95.642-23.282 193.030-28.87 291.158-24.924 76.228 3.066 151.45 12.544 224.756 34.352 37.044 11.020 73.022 24.724 104.1 48.54 7.79 5.97 14.296 13.596 21.846 19.918 2.694 2.256 6.73 2.906 10.154 4.29 0.75-3.016 2.142-6.028 2.154-9.046 0.144-40.498 0.774-81.016-0.39-121.48-0.282-9.824-5.182-20.358-10.48-29.026-12.294-20.118-31.062-33.784-51.084-45.56-48.604-28.584-101.95-43.838-156.678-54.984-64.406-13.116-129.58-18.292-195.236-18.242zM900.126 553.344c-0.182 25.944-21.058 47.302-45.922 46.978-25.042-0.324-45.298-21.786-45.106-47.792 0.194-26.136 20.604-46.904 45.918-46.722 25.196 0.182 45.292 21.358 45.11 47.536zM925.734 383.954c0-18.114-0.502-36.246 0.17-54.334 0.478-12.866-3.55-23.888-10.342-34.284-13.12-20.084-31.574-34.284-51.892-46.23-52.15-30.658-109.498-46.476-168.344-57.21-75.702-13.81-152.11-19.582-229.036-15.556-82.444 4.314-163.908 14.808-242.118 43.004-36.734 13.244-71.902 29.516-100.606 57.042-18.468 17.71-28.48 38.724-27.906 64.976 0.742 33.906 0.046 67.842 0.368 101.76 0.036 3.81 2.654 7.596 4.076 11.394 3.4-1.508 7.76-2.142 10.054-4.658 30.21-33.136 69.822-49.95 110.978-63.67 63.126-21.044 128.426-31.078 194.536-36.512 58.186-4.784 116.438-5.418 174.654-1.268 86.34 6.154 171.492 18.486 251.844 53.096 26.196 11.284 50.494 25.63 69.754 47.28 1.090 1.226 2.204 2.704 3.628 3.298 2.53 1.054 5.498 2.392 7.9 1.866 1.196-0.262 2.168-4.38 2.186-6.762 0.166-21.076 0.096-42.154 0.096-63.232zM900.128 330.052c-0.096 25.954-20.824 47.346-45.726 47.19-24.972-0.156-45.416-21.638-45.304-47.604 0.112-26.102 20.544-47.108 45.718-47.006 25.134 0.102 45.406 21.318 45.312 47.42z" />
<glyph unicode="&#xe603;" glyph-name="plane" d="M1020 440.504c-0.356-0.548-0.884-1.050-1.040-1.648-11.836-45.484-40.062-67.426-87.21-67.458-92.93-0.064-185.86-0.134-278.788 0.18-8.148 0.028-12.896-2.272-17.46-9.14-79.904-120.262-160.144-240.302-240.082-360.542-4.28-6.438-8.688-9.122-16.556-8.94-23.926 0.554-47.874 0.2-73.538 0.2 42.128 126.342 83.916 251.668 126.114 378.222-4.506 0-7.69 0-10.876 0-71.586 0-143.17-0.096-214.756 0.154-6.9 0.024-11.418-1.906-15.736-7.368-29.516-37.346-59.446-74.362-88.99-111.686-4.010-5.066-8.020-7.426-14.704-7.312-24.592 0.426-49.198 0.168-75 0.168 1.662 4.524 2.896 8.16 4.322 11.72 25.232 62.988 50.404 126 75.866 188.894 2.66 6.572 2.648 12.116-0.008 18.68-25.456 62.896-50.63 125.908-75.862 188.896-1.428 3.564-2.668 7.204-4.322 11.696 27.442 0 53.688 0.21 79.922-0.284 3.052-0.058 6.704-3.478 8.944-6.254 29.69-36.788 59.35-73.602 88.552-110.774 5.238-6.668 10.644-8.946 18.984-8.906 70.598 0.332 141.2 0.19 211.8 0.19 3.514 0 7.030 0 11.872 0-42.154 126.4-83.898 251.572-126.136 378.222 19.392 0 37.796-1.64 55.774 0.424 21.36 2.454 32.924-6.076 44.484-23.696 76.144-116.056 153.666-231.206 230.48-346.824 4.194-6.312 8.57-8.31 15.922-8.29 92.928 0.25 185.862 0.604 278.784-0.274 15.284-0.144 31.256-4.162 45.596-9.754 22.902-8.93 36-27.594 41.492-51.51 0.576-2.508 1.432-4.952 2.16-7.426-0.004-9.852-0.004-19.706-0.004-29.56z" />
<glyph unicode="&#xe604;" glyph-name="train" d="M173-52.288c50.474 68.2 100.948 136.4 151.838 205.162-2.074 1.022-3.366 1.958-4.802 2.324-55.714 14.25-95.864 65.034-95.936 122.53-0.192 153.192-0.186 306.384-0.012 459.574 0.074 64.666 52.132 120.546 116.638 125.852 6.504 0.536 13.046 0.852 19.57 0.856 106.48 0.052 212.96-0.028 319.44 0.066 46.064 0.040 83.962-16.856 112.010-53.854 16.062-21.188 24.126-45.414 24.138-72.056 0.068-153.192 0.192-306.384-0.042-459.574-0.090-58.848-39.928-109.014-97.018-123.576-0.884-0.226-1.664-0.864-3.832-2.030 50.814-68.638 101.39-136.956 151.968-205.274-29.406 0-58.81 0-88.216 0-34.658 44.156-69.366 88.274-103.894 132.53-3.458 4.434-6.864 6.744-12.872 6.73-94.676-0.208-189.354-0.074-284.030-0.394-4.062-0.014-9.444-2.606-11.968-5.782-35.15-44.18-69.91-88.67-104.764-133.084-29.406 0-58.81 0-88.216 0zM519.946 521.754c53.246 0 106.492-0.268 159.736 0.088 39.488 0.264 64.92 25.846 65.366 65.2 0.3 26.456 0.282 52.92 0.014 79.378-0.43 42.356-25.868 67.35-68.284 67.38-60.758 0.042-121.518 0.012-182.276 0.010-45.080 0-90.16 0.182-135.236-0.066-34.508-0.19-60.426-20.852-62.812-54.66-2.474-35.044-0.398-70.41-0.192-105.636 0.014-2.55 0.84-5.14 1.568-7.632 7.982-27.342 31.452-43.892 63.362-44.016 52.916-0.204 105.836-0.054 158.754-0.046zM519.934 774.986c25.448 0 50.9-0.206 76.346 0.070 18.096 0.196 25.322 7.838 25.336 25.7 0.002 3.262 0.002 6.526 0 9.788-0.006 19.096-6.882 26.738-26.244 26.866-50.242 0.332-100.492 0.382-150.73-0.198-7.008-0.080-14.894-2.992-20.734-6.988-9.132-6.25-8.602-42.716 0.716-48.682 5.94-3.802 13.83-6.066 20.928-6.278 24.776-0.738 49.586-0.284 74.382-0.278zM738.218 278.114c-0.006 31.438-25.504 56.456-57.68 56.592-31.988 0.136-58.108-24.942-58.42-56.094-0.316-31.432 26.030-57.166 58.426-57.070 32.154 0.096 57.678 25.134 57.674 56.572zM357.896 221.634c32.238-0.192 58.038 24.494 58.366 55.848 0.334 31.8-25.506 57.304-58.022 57.264-32.094-0.038-57.876-25.154-57.928-56.43-0.056-31.394 25.44-56.488 57.584-56.682zM506.35 910.454c-0.342-21.916-19.058-39.624-41.572-39.336-22.418 0.288-40.81 18.608-40.616 40.456 0.198 22.262 19.346 40.31 42.228 39.806 22.458-0.496 40.306-18.774 39.96-40.926zM574.276 951.39c22.476 0.166 41.136-17.608 41.516-39.546 0.386-22.216-18.474-40.802-41.324-40.726-22.508 0.074-40.836 18.032-40.87 40.044-0.032 22.068 18.164 40.062 40.678 40.228z" />
<glyph unicode="&#xe605;" glyph-name="search" d="M384 959.84c212.064 0 384-171.936 384-384 0-64.832-16.224-125.856-44.64-179.456l267.008-266.944-0.224-0.192c20.864-20.512 33.856-48.928 33.856-80.512 0-62.368-50.56-112.928-112.928-112.928-31.52 0-59.968 12.992-80.48 33.888l0.064 0.064-266.912 266.88c-53.632-28.512-114.752-44.8-179.744-44.8-212.064 0-384 171.936-384 384s171.936 384 384 384zM870.56 9.696c10.304-10.688 24.576-17.376 40.512-17.376 31.2 0 56.48 25.248 56.48 56.448 0 15.936-6.72 30.176-17.376 40.512l0.288 0.256-258.112 258.112c-22.56-30.432-49.44-57.312-79.808-79.936l258.016-258.016zM384 255.808c176.704 0 320 143.328 320 320 0 176.704-143.296 320-320 320-176.672 0-320-143.296-320-320 0-176.672 143.328-320 320-320zM384 799.84c-8.8 0-16-7.168-16-16s7.2-16 16-16c106.048 0 192-85.984 192-192 0-8.832 7.168-16 16-16s16 7.168 16 16c0 123.712-100.256 224-224 224z" />
<glyph unicode="&#xe606;" glyph-name="bubble" d="M512 736c8.832 0 16-7.168 16-16s-7.2-16-16-16c-170.464 0-320-89.728-320-192 0-8.832-7.168-16-16-16s-16 7.168-16 16c0 121.408 161.184 224 352 224zM512 896c-282.784 0-512-171.936-512-384 0-132.064 88.928-248.512 224.256-317.632 0-0.864-0.256-1.44-0.256-2.368 0-57.376-42.848-119.136-61.696-151.552 0.032 0 0.064 0 0.064 0-1.504-3.52-2.368-7.392-2.368-11.456 0-16 12.96-28.992 28.992-28.992 3.008 0 8.288 0.8 8.16 0.448 100 16.384 194.208 108.256 216.096 134.88 31.968-4.704 64.928-7.328 98.752-7.328 282.72 0 512 171.936 512 384s-229.248 384-512 384zM512 192c-29.344 0-59.456 2.24-89.472 6.624-3.104 0.512-6.208 0.672-9.28 0.672-19.008 0-37.216-8.448-49.472-23.36-13.696-16.672-52.672-53.888-98.72-81.248 12.48 28.64 22.24 60.736 22.912 93.824 0.192 2.048 0.288 4.128 0.288 5.888 0 24.064-13.472 46.048-34.88 56.992-118.592 60.544-189.376 157.984-189.376 260.608 0 176.448 200.96 320 448 320 246.976 0 448-143.552 448-320s-200.992-320-448-320z" />
<glyph unicode="&#xe607;" glyph-name="data" d="M512 960c-215.808 0-448-65.056-448-208v-608c0-142.88 232.192-208 448-208 215.776 0 448 65.12 448 208v608c0 142.944-232.256 208-448 208zM896 144c0-79.488-171.936-144-384-144-212.096 0-384 64.512-384 144v119.552c66.112-68.128 225.6-103.552 384-103.552s317.888 35.424 384 103.552v-119.552zM896 336h-0.128c0-0.32 0.128-0.672 0.128-0.992 0-79.008-171.936-143.008-384-143.008s-384 64-384 143.008c0 0.32 0.128 0.672 0.128 0.992h-0.128v119.552c66.112-68.128 225.6-103.552 384-103.552s317.888 35.424 384 103.552v-119.552zM896 528h-0.128c0-0.32 0.128-0.672 0.128-0.992 0-79.008-171.936-143.008-384-143.008s-384 64-384 143.008c0 0.32 0.128 0.672 0.128 0.992h-0.128v109.952c83.872-63.904 237.6-93.952 384-93.952s300.128 30.048 384 93.952v-109.952zM512 608c-212.096 0-384 64.512-384 144 0 79.552 171.904 144 384 144 212.064 0 384-64.448 384-144 0-79.488-171.936-144-384-144zM768 128c0 17.673 14.327 32 32 32s32-14.327 32-32c0-17.673-14.327-32-32-32s-32 14.327-32 32zM768 320c0 17.673 14.327 32 32 32s32-14.327 32-32c0-17.673-14.327-32-32-32s-32 14.327-32 32zM768 512c0 17.673 14.327 32 32 32s32-14.327 32-32c0-17.673-14.327-32-32-32s-32 14.327-32 32z" />
<glyph unicode="&#xe608;" glyph-name="calendar2" d="M938.688 864h-138.688v64c0 17.696-14.304 32-32 32s-32-14.304-32-32v-64h-192v64c0 17.696-14.336 32-32 32s-32-14.304-32-32v-64h-192v64c0 17.696-14.336 32-32 32s-32-14.304-32-32v-64h-138.656c-47.136 0-85.344-38.176-85.344-85.312v-757.344c0-47.136 38.208-85.344 85.344-85.344h853.344c47.136 0 85.312 38.208 85.312 85.344v757.344c0 47.136-38.176 85.312-85.312 85.312zM960 21.344c0-11.776-9.568-21.344-21.312-21.344h-853.344c-11.776 0-21.344 9.568-21.344 21.344v757.344c0 11.744 9.568 21.312 21.344 21.312h138.656v-64c0-17.696 14.336-32 32-32s32 14.304 32 32v64h192v-64c0-17.696 14.336-32 32-32s32 14.304 32 32v64h192v-64c0-17.696 14.304-32 32-32s32 14.304 32 32v64h138.688c11.744 0 21.312-9.568 21.312-21.312v-757.344zM224 576h128v-96h-128zM224 416h128v-96h-128zM224 256h128v-96h-128zM448 256h128v-96h-128zM448 416h128v-96h-128zM448 576h128v-96h-128zM672 256h128v-96h-128zM672 416h128v-96h-128zM672 576h128v-96h-128z" />
<glyph unicode="&#xe609;" glyph-name="cem-1" d="M2 921.538c338.872 0 677.746 0 1017.246 0 0-220.784 0-440.872 0-662.28-3.978 0-7.842 0-11.704 0-133.972 0-267.946-0.046-401.918 0.126-7.418 0.010-12.998-1.81-18.688-6.916-99.45-89.256-199.112-178.274-298.736-267.336-3.464-3.098-6.994-6.122-12.198-10.668 0 95.64 0 189.544 0 284.796-5.332 0-9.206 0-13.080 0-82.984 0-165.966-0.004-248.95 0.016-3.99 0-7.982 0.226-11.972 0.348 0 220.636 0 441.276 0 661.914z" />
<glyph unicode="&#xe60a;" glyph-name="cem-2" d="M1.378-63.598c0 86.656 0 173.312 0 259.968 21.174 0 42.348 0 64.226 0 0 83.296 0 165.146 0 248.076 127.476 0 254.22 0 381 0 0 41.85 0 82.61 0 124.108-43.908 0-87.102 0-130.67 0 0 130.15 0 259.556 0 389.018 130.002 0 259.408 0 388.544 0 0-130.112 0-259.518 0-389.664-42.67 0-84.532 0-126.47 0 0-41.51 0-82.27 0-124.108 127.444 0 254.188 0 381.66 0 0-82.932 0-164.784 0-247.728 21.5 0 42.286 0 62.766 0 0-87.188 0-173.272 0-259.090-85.998 0-171.18 0-256.46 0 0 86.662 0 172.746 0 259.926 21.462 0 42.248 0 62.71 0 0 39.63 0 78.156 0 116.744-84.008 0-167.424 0-250.906 0 0-39.23 0-77.756 0-117.378 21.896 0 43.348 0 64.804 0 0-87.186 0-173.27 0-259.394-86.562 0-172.41 0-258.66 0 0 86.56 0 172.642 0 259.826 21.356 0 42.142 0 62.912 0 0 39.628 0 78.154 0 117.048-83.904 0-167.322 0-250.756 0 0-39.368 0-78.13 0-117.632 21.256 0 41.792 0 62.652 0 0-86.832 0-172.914 0-259.718-86.19-0.002-171.772-0.002-257.352-0.002z" />
<glyph unicode="&#xe60b;" glyph-name="cem-3" d="M59.36-12.392c0 323.8 0 646.902 0 971.128 3.95 0 7.502 0 11.056 0 161.606 0 323.212-0.042 484.818 0.144 6.888 0.008 11.696-1.978 16.57-6.83 76.028-75.708 152.278-151.192 228.286-226.918 3.196-3.184 6.408-8.178 6.488-12.388 1.35-71.622 2.208-143.252 3.156-214.88 0.018-1.308-0.182-2.62-0.364-5.042-88.678 46.418-178.794 51.842-269.892 9.998-62.136-28.54-108.116-74.594-138.54-135.782-63.576-127.864-25.814-294.168 109.182-379.43-150.78 0-300.37 0-450.76 0zM149.606 586.302c0-16.726 0-32.822 0-48.786 132.044 0 263.416 0 394.784 0 0 16.592 0 32.452 0 48.786-131.628 0-262.764 0-394.784 0zM484.364 697.176c0 16.98 0 32.838 0 49-111.904 0-223.276 0-334.724 0 0-16.69 0-32.786 0-49 111.842 0 222.982 0 334.724 0zM149.384 377.32c65.644 0 130.124 0 194.902 0 0 16.608 0 32.698 0 48.792-65.346 0-130.064 0-194.902 0 0-16.544 0-32.396 0-48.792zM585.474 5.412c3.452 15.374 6.564 29.234 9.774 43.534-13.834 6.76-27.412 13.392-41.53 20.29-9.006-11.37-18.064-22.804-28.004-35.35-15.56 13.298-30.626 26.172-46.612 39.834 10.976 11.854 21.076 22.764 30.986 33.468-8.598 12.66-16.954 24.964-25.796 37.986-13.566-5.388-27.326-10.854-42.518-16.89-6.898 19.422-13.52 38.066-20.496 57.704 15.478 4.844 29.636 9.274 44.144 13.816-1.11 15.13-2.196 29.936-3.336 45.476-14.592 2.146-29.33 4.314-45.848 6.742 3.66 19.98 7.214 39.374 11.022 60.16 16.128-3.566 30.89-6.828 45.642-10.090 6.632 13.684 12.978 26.776 19.808 40.868-11.476 9.018-23.448 18.424-36.83 28.94 13.374 15.632 26.372 30.82 39.926 46.662 12.172-11.284 23.114-21.428 34.36-31.854 12.308 8.512 24.494 16.94 37.388 25.858-5.434 13.648-10.936 27.466-17.228 43.268 19.142 6.83 37.962 13.544 57.718 20.594 4.98-15.918 9.504-30.378 13.936-44.546 15.32 1.27 29.854 2.476 45.346 3.76 2.108 14.358 4.268 29.072 6.602 44.954 10.098-1.308 19.9-2.18 29.54-3.94 9.764-1.782 19.37-4.444 30.486-7.060-3.276-15.060-6.474-29.764-9.622-44.228 14.012-6.592 27.18-12.784 41.278-19.416 9.056 11.406 18.292 23.036 28.424 35.796 15.536-13.276 30.598-26.148 46.51-39.746-10.906-11.882-20.95-22.822-30.722-33.47 8.826-12.612 17.372-24.822 26.418-37.748 13.078 5.198 26.538 10.546 41.652 16.552 6.854-19.134 13.514-37.722 20.646-57.628-15.038-4.73-28.804-9.060-42.698-13.43 1.286-15.122 2.544-29.926 3.918-46.11 13.584-2.054 27.862-4.212 43.79-6.622-3.726-20.036-7.334-39.446-11.172-60.084-15.196 3.374-29 6.44-42.97 9.542-6.728-14.050-13.272-27.712-20.118-42.006 10.866-8.588 22.050-17.428 34.5-27.268-13.192-15.488-26.014-30.538-39.758-46.672-11.3 10.43-21.696 20.024-32.358 29.864-12.636-8.636-25.156-17.194-38.49-26.306 5.050-12.712 10.278-25.87 16.24-40.876-19.292-6.834-38.122-13.504-57.78-20.468-4.73 15.132-8.96 28.67-13.184 42.184-15.5-1.138-30.358-2.23-46.248-3.396-2.096-13.894-4.254-28.204-6.636-43.992-20.256 3.824-39.682 7.492-60.1 11.344z" />
<glyph unicode="&#xe60c;" glyph-name="cem-4" d="M1.462 959.582c169.518 0 339.034 0 509.244 0 0-145.262 0-289.962 0-435.548-84.42 0-168.874 0-253.604 0-10.332-34.37-32.276-54.046-68.248-53.734-29.814 0.26-50.872 18.964-62.942 53.336-41.276 0-82.862 0-124.45 0 0 145.316 0 290.632 0 435.946zM514.12 371.78c85.19 0 169.718 0 255.076 0-0.684 23.338 6.194 43.122 24.040 58.050 12.496 10.452 27.112 15.698 43.316 15.32 37.942-0.888 61.474-27.156 65.42-73.338 40.028 0 80.162 0 120.822 0 0-145.514 0-290.002 0-435.296-169.182 0-338.566 0-508.674 0 0 144.422 0 289.146 0 435.264zM635.502 707.554c-36.33-0.186-66.024 29.404-66.078 65.85-0.056 36.42 29.5 66.13 65.842 66.184 36.354 0.054 66.034-29.566 66.080-65.95 0.048-36.518-29.224-65.896-65.844-66.084zM835.12 707.554c-36.24-0.072-65.816 29.722-65.72 66.208 0.094 36.372 29.808 65.92 66.2 65.828 36.306-0.092 65.828-29.876 65.722-66.306-0.106-36.462-29.512-65.658-66.202-65.73zM257.402 141.176c-0.244-36.32-30.038-65.63-66.552-65.47-36.182 0.158-65.624 30.174-65.37 66.644 0.254 36.368 30.114 65.708 66.548 65.386 36.444-0.322 65.618-30.026 65.374-66.56zM392.164 207.734c36.4-0.372 65.53-30.174 65.214-66.72-0.314-36.306-30.174-65.538-66.712-65.31-36.158 0.226-65.534 30.318-65.21 66.806 0.32 36.356 30.228 65.598 66.708 65.224zM834.61 509.404c-36.23 0.132-65.55 30.096-65.212 66.644 0.33 35.838 30.018 65.382 65.712 65.396 36.762 0.014 66.55-30.078 66.22-66.898-0.326-36.36-29.942-65.276-66.72-65.142zM192.29 405.876c36.528-0.452 65.486-30.14 65.11-66.746-0.374-36.262-30.44-65.64-66.816-65.286-36.164 0.35-65.476 30.508-65.114 66.992 0.36 36.386 30.266 65.494 66.82 65.040z" />
<glyph unicode="&#xe60d;" glyph-name="cem-5" d="M3.422 913.006c338.814 0 677.628 0 1017.158 0 0-83.258 0-165.998 0-249.968-339.058 0-678.108 0-1017.158 0 0 83.322 0 166.644 0 249.968zM948.836 842.328c-110.154 0-219.536 0-328.698 0 0-35.446 0-70.2 0-104.79 109.942 0 219.088 0 328.698 0 0 35.022 0 69.538 0 104.79zM3.422 231.090c338.814 0 677.628 0 1017.158 0 0-83.258 0-165.998 0-249.968-339.058 0-678.108 0-1017.158 0 0 83.322 0 166.646 0 249.968zM948.858 160.392c-150.22 0-299.594 0-448.676 0 0-35.47 0-70.228 0-104.748 149.96 0 299.098 0 448.676 0 0 35.048 0 69.568 0 104.748zM3.422 571.048c338.814 0 677.628 0 1017.158 0 0-83.258 0-165.998 0-249.968-339.058 0-678.108 0-1017.158 0 0 83.322 0 166.646 0 249.968zM379.802 395.794c190.266 0 379.632 0 569.014 0 0 35.248 0 69.768 0 104.716-189.854 0-379.22 0-569.014 0 0-35.066 0-69.588 0-104.716z" />
<glyph unicode="&#xe60e;" glyph-name="cem-6" d="M2 747.27c0 2.666 0 5.332 0 8 167.464 67.63 334.914 135.298 502.48 202.682 3.932 1.582 9.67 1.292 13.682-0.32 164.174-66.018 328.248-132.286 492.328-198.542 3.032-1.224 5.978-2.662 9.22-4.112-0.844-7.358-1.566-14.278-2.442-21.18-11.066-87.19-22.21-174.37-33.224-261.566-10.972-86.868-21.898-173.74-32.59-260.642-0.95-7.718-4.362-12.154-10.976-16.038-80.078-47.038-159.982-94.368-239.942-141.604-63.266-37.376-126.548-74.726-189.63-111.974-138.222 81.686-275.75 163.68-414.244 244.010-19.89 11.536-26.736 24.86-29.096 46.372-8.386 76.436-18.714 152.658-28.338 228.958-9.75 77.288-19.474 154.582-29.358 231.852-2.318 18.072-5.232 36.070-7.87 54.104zM238.022 658.608c1.704-13.058 3.224-24.934 4.804-36.802 10.368-77.878 20.872-155.736 30.932-233.654 1.006-7.79 3.84-12.3 10.736-16.142 72.688-40.492 145.218-81.266 217.662-122.192 5.518-3.118 9.51-3.48 15.28-0.212 72.696 41.156 145.522 82.084 218.492 122.752 6.638 3.698 9.196 8.128 10.132 15.454 7.388 57.786 15.21 115.516 22.886 173.266 4.292 32.292 8.558 64.586 12.894 97.328-2.462 1.050-4.534 2.010-6.66 2.826-86.31 33.168-172.6 66.384-259.012 99.286-3.816 1.452-9.18 1.212-13.064-0.252-46.688-17.582-93.244-35.52-139.814-53.414-41.562-15.972-83.102-32.002-125.268-48.244z" />
<glyph unicode="&#xe60f;" glyph-name="cem-7" d="M2 13.118c0 315.294 0 630.588 0 945.882 315.722 0 631.442 0 947.498 0 0.176-2.816 0.364-4.43 0.364-6.042 0.016-143.934 0.062-287.866-0.22-431.8-0.008-3.912-2.64-8.768-5.58-11.59-169.886-163.17-339.96-326.144-509.848-489.31-5.5-5.284-10.902-7.294-18.406-7.284-137.936 0.196-275.872 0.144-413.808 0.144zM356.374 563.784c130.306 0 259.68 0 389.038 0 0 26.594 0 52.448 0 78.698-129.872 0-259.246 0-389.038 0 0-26.41 0-52.266 0-78.698zM356.4 405.778c130.226 0 259.602 0 388.682 0 0 26.808 0 52.902 0 78.75-129.964 0-259.102 0-388.682 0 0-26.384 0-52.238 0-78.75zM645.462 326.386c-96.85 0-192.898 0-288.7 0 0-26.794 0-52.886 0-78.78 96.618 0 192.432 0 288.7 0 0 26.366 0 52.218 0 78.78zM277.276 563.512c0 26.816 0 52.89 0 78.75-26.772 0-52.848 0-78.79 0 0-26.618 0-52.456 0-78.75 26.346 0 52.184 0 78.79 0zM198.812 484.844c0-26.378 0-52.682 0-79.104 26.41 0 52.482 0 78.392 0 0 26.754 0 52.83 0 79.104-26.358 0-51.956 0-78.392 0zM198.368 247.57c26.942 0 52.778 0 79.030 0 0 26.554 0 52.626 0 78.854-26.646 0-52.72 0-79.030 0 0-26.496 0-52.33 0-78.854zM552.066-64.52c17.28 57.534 33.986 113.276 50.862 168.964 0.818 2.7 2.776 5.314 4.82 7.348 60.906 60.664 121.886 121.252 182.874 181.836 0.912 0.906 2.036 1.598 1.868 1.468 40.652-39.526 80.936-78.694 121.628-118.26-2.97-3.162-5.11-5.582-7.394-7.854-58.826-58.502-117.61-117.048-176.638-175.346-4.036-3.986-9.59-7.21-15.024-8.888-50.524-15.608-101.176-30.802-151.796-46.102-3.126-0.944-6.286-1.78-11.2-3.166zM631.848 86.85c-11.65-35.024-23.304-70.060-35.568-106.932 5.708 1.568 9.17 2.354 12.522 3.466 22.694 7.53 45.384 15.076 68.038 22.734 8.788 2.97 21.022 3.828 25.246 10.032 4.546 6.678 1.696 18.496 1.792 28.074 0.142 14.156 0.036 28.314 0.036 42.626-24.738 0-47.986 0-72.066 0zM899.552 405.474c41.556-40.39 81.872-79.572 121.008-117.61-20.88-21.876-41.1-43.060-60.294-63.168-41.268 40.088-81.75 79.416-121.048 117.592 20.882 21.866 41.106 43.048 60.334 63.186z" />
<glyph unicode="&#xe610;" glyph-name="cem-8" d="M2-64.872c0 341.29 0 682.582 0 1023.872 339.070 0 678.14 0 1017.188 0 0-341.956 0-682.624 0-1023.872-339.52 0-678.354 0-1017.188 0zM172.412 319.8c228.254 0 455.612 0 682.996 0 0 26.58 0 52.44 0 78.728-227.846 0-455.204 0-682.996 0 0-26.398 0-52.258 0-78.728zM172.452 127.782c228.128 0 455.488 0 682.642 0 0 26.784 0 52.88 0 78.812-227.922 0-455.046 0-682.642 0 0-26.356 0-52.214 0-78.812zM624.33 489.762c66.252 0 131.64 0 196.804 0 0 62.104 0 123.504 0 185.616-7.304 0-13.854 0-21.424 0 0 38.794 0 76.882 0 114.936-51.134 0-101.2 0-152.318 0 0-38.792 0-76.884 0-115.676-8.268 0-15.48 0-23.062 0 0-61.884 0-123.038 0-184.876zM551.216 697.47c0 26.86 0 52.952 0 78.776-126.758 0-252.802 0-378.7 0 0-26.636 0-52.492 0-78.776 126.344 0 252.15 0 378.7 0zM551.368 507.504c0 27.020 0 52.874 0 78.918-126.606 0-252.648 0-378.65 0 0-26.724 0-52.816 0-78.918 126.546 0 252.35 0 378.65 0zM759.344 673.512c-23.608 0-46.78 0-70.692 0 0 25.39 0 50.798 0 76.864 23.31 0 46.718 0 70.692 0 0-25.58 0-50.984 0-76.864z" />
<glyph unicode="&#xe611;" glyph-name="cem-9" d="M7.128 449.042c0.034 281.98 227.324 510.662 507.72 510.828 280.692 0.166 508.296-228.892 508.152-511.396-0.144-282.716-228.726-512.986-508.718-512.474-279.778 0.512-507.19 230.562-507.154 513.042zM722.868 388.108c-54.47 0-107.908 0-161.154 0 0 24.212 0 47.31 0 71.282 53.964 0 107.146 0 160.886 0 0 27.352 0 53.814 0 81.506-28.892 0-57.31 0-88.020 0 34.518 33.816 67.25 65.882 99.816 97.784-21.13 20.792-40.292 39.648-61.53 60.546-1.344-2.004-2.96-5.47-5.492-8.026-47.364-47.826-94.836-95.546-142.288-143.284-9.478-9.536-9.608-9.544-18.864-0.24-46.768 47.008-93.548 94.008-140.24 141.092-2.552 2.572-4.35 5.89-5.66 7.702-20.488-20.448-39.436-39.36-61.332-61.214 31.506-30.782 63.668-62.206 97.252-95.018-28.9 0-56.292 0-83.826 0 0-27.526 0-53.706 0-81.068 55.764 0 110.912 0 166.314 0 0-24.318 0-47.446 0-71.652-55.742 0-110.848 0-166.38 0 0-27.586 0-54.088 0-81.618 55.682 0 110.814 0 167.016 0 0-59.812 0-118.61 0-178.096 27.518 0 53.96 0 81.762 0 0 59.468 0 118.52 0 178.618 54.792 0 108.234 0 161.742 0-0.002 27.352-0.002 53.632-0.002 81.686z" />
<glyph unicode="&#xe612;" glyph-name="cem-10" d="M0 14.81c0 151.98 0 303.962 0 455.942 135.166 0 270.33 0 406.598 0 0-34.766 0-68.234 0-101.378 68.88 0 136.65 0 205.246 0 0 34.040 0 67.226 0 100.848 136.936 0 273.036 0 409.388 0 0-151.934 0-303.34 0-455.414-340.838 0.002-681.034 0.002-1021.232 0.002zM0 716.722c107.878 0 215.758 0 323.576 0 5.864 96.574 89.578 161.964 180.95 164 96.242 2.142 184.798-66.422 189.872-164.020 108.766 0 217.58 0 326.932 0 0-64.958 0-129.072 0-193.966-3.804-0.17-7.35-0.468-10.896-0.468-333.494-0.022-666.988-0.022-1000.482 0-3.318 0-6.634 0.312-9.952 0.478 0 64.66 0 129.318 0 193.976z" />
<glyph unicode="&#xe613;" glyph-name="cem-11" d="M6.072 8.88c0 290.63 0 581.26 0 871.89 130.47 0 260.942 0 392.508 0 0-40.834 0-80.27 0-120.402 152.928 0 304.756 0 456.732 0 0-250.768 0-500.808 0-751.49-283.516 0.002-566.378 0.002-849.24 0.002zM425.66 408.602c0 64.198 0 126.96 0 189.708-26.958 0-52.82 0-79.020 0 0-89.912 0-179.326 0-268.748 104.024 0 207.434 0 310.858 0 0 26.586 0 52.448 0 79.040-77.004 0-153.522 0-231.838 0zM895.012 608.39c40.964 0 81.536 0 122.862 0-40.050-200.202-79.992-399.858-119.934-599.514-0.976 0.124-1.952 0.25-2.928 0.374 0 199.448 0 398.894 0 599.14z" />
<glyph unicode="&#xe614;" glyph-name="cem-12" d="M0 409.006c338.818 0 677.638 0 1017.164 0 0-129.924 0-259.316 0-389.952-339.056 0-678.11 0-1017.164 0 0 129.984 0 259.968 0 389.952zM114.458 221.708c121.472 0 242.182 0 362.688 0 0 26.78 0 52.874 0 78.808-121.268 0-241.742 0-362.688 0 0-26.352 0-52.208 0-78.808zM512.406 221.712c74.814 0 148.868 0 222.712 0 0 26.78 0 52.868 0 78.802-74.61 0-148.428 0-222.712 0 0-26.352 0-52.204 0-78.802zM0 878.946c338.816 0 677.632 0 1017.16 0 0-96.592 0-192.66 0-289.964-339.056 0-678.108 0-1017.16 0 0 96.656 0 193.31 0 289.964z" />
<glyph unicode="&#xe615;" glyph-name="cem-13" d="M1023.654 94.654c-340.872 0-681.744 0-1023.308 0 0 267.952 0 535.34 0 804 341.092 0 682.2 0 1023.308 0 0-268 0-536 0-804zM50.042 145.482c308.502 0 615.902 0 923.046 0 0 234.67 0 468.512 0 702.524-307.97 0-615.376 0-923.046 0 0-234.49 0-468.332 0-702.524zM338.34 44.19c115.99 0 231.142 0 346.804 0 0-16.318 0-32.18 0-48.79-115.338 0-230.726 0-346.804 0 0 15.916 0 32.014 0 48.79zM924.956 193.11c-275.924 0-551.092 0-826.782 0 0 202.298 0 404.142 0 606.766 275.274 0 550.68 0 826.782 0 0-201.856 0-403.936 0-606.766zM520.88 544.354c11.202 1.018 31.554 1.952 51.592 4.968 16.708 2.514 33.326 6.572 49.488 11.554 24.344 7.504 47.508 17.828 64.922 37.494 17.090 19.298 18.202 42.146-0.178 59.958-12.61 12.222-27.906 23.494-44.096 29.894-82.834 32.74-166.964 32.504-251.156 4.754-21.030-6.932-40.49-17.294-55.374-34.416-16.596-19.094-16.62-40.458-0.18-59.61 12.23-14.246 28.062-23.306 45.074-30.552 41.8-17.802 85.852-23.22 139.908-24.044zM699.452 589.112c-10.698-21.548-27.256-36.658-56.956-48.558-70.612-28.288-143.336-30.558-216.698-14.206-40.596 9.048-80.198 21.69-102.142 63.864 0-16.27 0.248-31.248-0.074-46.214-0.282-13.066 3.284-25.35 13.050-33.33 13.738-11.226 28.134-23.052 44.276-29.69 73.008-30.024 148.35-30.804 224.33-12.986 27.054 6.344 52.772 16.364 74.236 34.902 10.326 8.92 18.96 19.5 19.746 33.552 0.974 17.508 0.232 35.108 0.232 52.666zM323.654 501.030c0-13.64 0.624-27.314-0.15-40.91-1.106-19.41 7.092-34.002 21.29-46.112 16.522-14.092 35.91-22.824 56.318-29.206 57.304-17.92 115.734-20.298 174.754-11.008 33.082 5.206 65.026 14.176 93.254 33.104 13.19 8.844 26.546 19.294 28.486 35.65 2.284 19.27 0.536 39.020 0.536 58.916-5.072-14.408-14.348-25.584-26.906-32.784-15.764-9.038-32.056-17.936-49.202-23.636-51.694-17.186-105.054-19.734-158.872-13.548-33.218 3.818-65.536 11.452-95.388 27.192-18.53 9.768-34.854 22-44.12 42.342zM323.654 412.918c0-14.972 0.248-29.95-0.074-44.916-0.282-13.068 3.284-25.35 13.048-33.33 13.738-11.226 28.236-22.616 44.272-29.734 50.708-22.502 104.67-26.788 159.398-23.222 39.78 2.592 78.548 10.036 114.36 28.58 18.594 9.628 37.688 20.958 42.332 42.512 4.178 19.392 2.512 40.042 3.424 60.138-7.364-14.004-16.712-25.132-29.276-32.328-15.766-9.032-32.068-17.906-49.216-23.604-51.698-17.178-105.056-19.7-158.874-13.502-33.22 3.826-65.53 11.482-95.38 27.222-18.516 9.762-34.758 22.066-44.014 42.184z" />
<glyph unicode="&#xe616;" glyph-name="cem-14" d="M1.424 125.5c0 66.658 0 133.316 0 199.974 45.76 0 91.522 0 137.274 0 0 17.992 0 34.736 0 51.994-46.23 0-91.752 0-137.274 0 0 66.658 0 133.316 0 199.974 45.762 0 91.522 0 137.274 0 0 18.658 0 36.068 0 53.994-46.228 0-91.752 0-137.274 0 0 66.658 0 133.316 0 199.974 45.832 0 91.666 0 138.232 0 0 41.978 0 82.51 0 123.374 294.802 0 588.856 0 882.922 0 0-339.324 0-678.038 0-1016.786-294.538 0-588.356 0-883.274 0 0 62.566 0 124.668 0 187.5-46.692 0.002-92.286 0.002-137.88 0.002zM866.88 770.702c-190.248 0-379.612 0-569.010 0 0-26.578 0-52.436 0-78.734 189.846 0 379.212 0 569.010 0 0 26.394 0 52.252 0 78.734zM297.842 506.148c190.186 0 379.55 0 568.658 0 0 26.8 0 52.898 0 78.776-189.944 0-379.074 0-568.658 0 0-26.374 0-52.232 0-78.776z" />
<glyph unicode="&#xe617;" glyph-name="cem-15" d="M64.624 831.856c102.328 0 204.148 0 305.882 0 6.936 85.774 83.068 130.796 150.546 127.374 66.11-3.352 130.088-50.026 135.712-127.328 100.614 0 201.342 0 302.544 0 0-299.178 0-597.018 0-895.682-297.87 0-595.916 0-894.682 0-0.002 297.754-0.002 595.82-0.002 895.636zM367.694 550.334c156.76 0 312.194 0 467.562 0 0 35.94 0 71.114 0 106.502-156.088 0-311.562 0-467.562 0 0-35.698 0-70.852 0-106.502zM835.516 441.218c-156.422 0-311.846 0-467.752 0 0-35.746 0-70.874 0-106.38 156.246 0 311.894 0 467.752 0 0 35.728 0 70.632 0 106.38zM835.548 225.834c-156.536 0-311.948 0-467.738 0 0-35.784 0-70.912 0-106.296 156.25 0 311.856 0 467.738 0 0 35.738 0 70.646 0 106.296zM307.3 550.048c0 36.204 0 71.36 0 106.604-35.974 0-71.37 0-106.742 0 0-35.864 0-70.998 0-106.604 35.75 0 70.894 0 106.742 0zM200.284 334.796c36.3 0 71.67 0 106.994 0 0 35.922 0 71.058 0 106.256-35.958 0-71.314 0-106.994 0 0-35.644 0-70.51 0-106.256zM307.414 118.994c0 36.058 0 71.174 0 106.872-35.776 0-71.188 0-106.626 0 0-35.952 0-71.276 0-106.872 35.726 0 70.616 0 106.626 0z" />
<glyph unicode="&#xe618;" glyph-name="cem-16" d="M445.64 828.198c0-146.906 0-293.096 0-440.334 147.822 0 294.558 0 442.436 0-0.52-65.564-14.198-126.982-41.996-185.112-40.766-85.244-102.578-151.058-185.154-196.93-165.7-92.050-372.74-67.15-512.494 61.216-139.262 127.916-181.432 329.466-103.964 501.63 83.216 184.938 262.442 262.738 401.172 259.53zM1013.602 515.604c-146.842 0-292.978 0-440.386 0 0 145.94 0 291.71 0 437.466 216.132 9.434 441.996-178.086 440.386-437.466z" />
<glyph unicode="&#xe619;" glyph-name="cem-17" d="M435 960h589v-263.89h-589v263.89zM435 579.946h589v-263.89h-589v263.89zM435 199.89h589v-263.89h-589v263.89zM205.474 753.298l-48.966-48.966-134.654 134.654 48.964 48.966 85.69-85.69 107.38 107.378v50.36h-263.888v-263.89h263.888v115.6zM205.474-6.812l-48.966-48.966-134.654 134.654 48.964 48.966 85.69-85.69 107.38 107.378v50.36h-263.888v-263.89h263.888v115.6zM0 579.946h263.888v-263.888h-263.888v263.888z" />
<glyph unicode="&#xe61a;" glyph-name="cem-18" d="M804.012-63.98c-196 0-392 0-588 0-2.166 0.696-4.288 1.588-6.502 2.062-45.818 9.81-79.342 49.734-79.38 96.35-0.2 256.96-0.354 513.92 0.158 770.88 0.082 41.314 21.048 71.402 58.214 89.504 16.026 7.806 33.174 10.82 51.508 8.442 0-13.706-0.026-26.678 0.004-39.648 0.092-39.968 30.57-71.408 69.368-71.578 39.618-0.174 70.506 31.008 70.62 71.322 0.038 13.24 0.006 26.48 0.006 40.050 20.42 0 39.854 0 60 0 0-5.216-0.208-9.834 0.038-14.428 0.838-15.574-0.48-31.718 3.244-46.59 8.35-33.34 42.548-54.732 75.698-49.838 35.454 5.234 60.776 34.014 61.006 69.436 0.090 13.852 0.014 27.704 0.014 41.55 20.632 0 39.83 0 60 0 0-13.372-0.014-26.28 0.002-39.186 0.054-40.754 30.398-72.262 69.632-72.316 39.904-0.056 70.32 31.316 70.362 72.584 0.014 12.886 0.002 25.77 0.002 38.502 58.282 6.73 109.872-39.75 109.914-98.81 0.186-256.294 0.156-512.586 0.008-768.88-0.028-47.338-33.236-87.466-79.422-97.35-2.206-0.474-4.328-1.362-6.494-2.058zM771.448 524.468c0 24.358 0 47.548 0 70.928-119.956 0-239.346 0-358.696 0 0-24.062 0-47.492 0-70.928 119.896 0 239.048 0 358.696 0zM771.568 423.31c-120.244 0-239.636 0-358.73 0 0-24.146 0-47.576 0-70.76 119.982 0 239.134 0 358.73 0 0 23.722 0 46.914 0 70.76zM771.582 251.298c-120.282 0-239.674 0-359.086 0 0-23.916 0-47.11 0-70.734 119.874 0 239.264 0 359.086 0 0 23.734 0 46.926 0 70.734zM335.566 595.314c-24.202 0-47.614 0-70.76 0 0-24.126 0-47.54 0-70.768 23.972 0 47.148 0 70.76 0 0 23.7 0 46.872 0 70.768zM335.568 423.312c-24.214 0-47.624 0-70.76 0 0-24.13 0-47.544 0-70.76 23.976 0 47.152 0 70.76 0 0 23.7 0 46.874 0 70.76zM264.57 251.552c0-24.354 0-47.53 0-70.888 23.972 0 47.38 0 70.71 0 0 24.062 0 47.474 0 70.888-23.91 0-47.086 0-70.71 0zM340.004 896.024c0-10.978 0.15-21.958-0.034-32.934-0.298-17.858-12.886-30.902-29.7-31.042-16.832-0.142-29.968 12.854-30.182 30.528-0.268 22.286-0.268 44.58 0 66.866 0.212 17.692 13.32 30.668 30.166 30.538 16.826-0.132 29.416-13.158 29.716-31.020 0.186-10.976 0.034-21.958 0.034-32.936zM480.024 896.316c-0.002 10.978-0.176 21.96 0.038 32.934 0.346 17.76 13.16 30.756 30.002 30.728 16.84-0.028 29.696-13.036 29.882-30.828 0.232-22.286 0.274-44.58-0.020-66.866-0.226-17.176-13.044-29.998-29.466-30.236-16.836-0.244-29.99 12.732-30.388 30.336-0.254 11.306-0.046 22.62-0.048 33.932zM740 895.874c0.002-10.978 0.162-21.96-0.034-32.934-0.318-17.804-13.024-30.834-29.846-30.892-16.832-0.060-29.836 12.948-30.038 30.678-0.252 22.286-0.276 44.58 0.010 66.866 0.226 17.636 13.462 30.6 30.312 30.388 16.438-0.206 29.136-13.006 29.542-30.172 0.268-11.306 0.052-22.622 0.054-33.934z" />
<glyph unicode="&#xe61b;" glyph-name="cem-19" d="M731.764 202.368h-107.816l-209.252 319.62c-10.846 16.588-18.716 29.984-23.604 40.192h-1.596c1.914-17.016 2.87-43.278 2.87-78.79v-281.024h-99.84v494.106h114.834l201.596-310.688c13.398-20.63 21.582-33.708 24.562-39.236h1.596c-2.128 11.906-3.192 34.658-3.192 68.262v281.662h99.842v-494.104zM1024 822.448l-137.552 137.552v-85.092h-886.448v-104.92h886.448v-85.092zM0 73.552l137.552 137.552v-85.092h886.448v-104.92h-886.448v-85.092z" />
<glyph unicode="&#xe61c;" glyph-name="cem-20" d="M680.94 207.768v293.91c0 27.096 1.352 61.174 4.064 102.242h-2.5c-6.254-31.062-11.258-51.8-15.008-62.222l-119.44-333.932h-82.234l-121.002 330.806c-2.922 7.92-8.026 29.704-15.32 65.348h-2.814c2.708-40.648 4.066-81.402 4.066-122.254v-273.9h-93.176v484.33h150.082l104.43-292.66c8.754-24.184 14.694-46.902 17.826-68.162h2.186c6.458 26.468 13.134 49.4 20.012 68.786l104.746 292.034h146.016v-484.328l-101.934 0.002zM1024 822.448l-137.552 137.552v-85.092h-886.448v-104.92h886.448v-85.092zM0 73.552l137.552 137.552v-85.092h886.448v-104.92h-886.448v-85.092z" />
<glyph unicode="&#xe61d;" glyph-name="cem-21" d="M785.99-63.668c-182.666 0-365.334 0-548 0-0.848 0.492-1.638 1.232-2.552 1.442-54.098 12.498-83.436 49.37-83.446 104.962-0.010 52.656-0.002 105.314-0.002 157.97 0 193.63-0.090 387.26 0.070 580.89 0.036 43.034 19.724 74.526 58.4 93.506 14.698 7.212 30.474 10.514 47.532 8.69 0-32.226-0.158-63.522 0.042-94.818 0.218-34.156 26.014-60.506 59.996-60.556 129.308-0.196 258.618-0.196 387.928 0 33.994 0.052 59.698 26.316 59.978 60.56 0.228 27.992 0.052 55.99 0.054 83.984 0 3.554 0 7.108 0 10.522 55.062 5.818 105.824-41.090 105.878-97.892 0.238-250.286 0.204-500.572 0.004-750.858-0.036-46.588-33.576-86.542-79.382-96.344-2.212-0.474-4.334-1.362-6.5-2.058zM575.968 505.042c-77.306-77.31-154.946-154.956-231.83-231.846 26.652-26.68 54.116-54.174 80.314-80.4 77.106 77.11 154.728 154.74 231.626 231.642-26.38 26.54-53.542 53.87-80.11 80.604zM739.958 506.692c-27.114 27.134-54.548 54.588-80.174 80.234-16.452-16.432-33.498-33.458-48.984-48.926 26.082-26.322 53.17-53.656 79.81-80.542 16.408 16.37 33.338 33.26 49.348 49.234zM391.436 158.376c-27.506 27.516-54.212 54.232-81.392 81.424-9.144-35.76-18.412-71.998-27.992-109.464 37.924 9.722 73.874 18.938 109.384 28.040zM314.45 784.962c0 33.312 0 65.826 0 99.058 35.632 0 70.818 0 107.082 0 0 25.454 0 50.226 0 75.648 60.482 0 119.884 0 180.37 0 0-24.862 0-49.636 0-75.104 36.256 0 71.442 0 107.354 0 0-33.462 0-66.214 0-99.602-131.312 0-262.672 0-394.806 0z" />
<glyph unicode="&#xe61e;" glyph-name="cem-22" d="M785.99-63.714c-182.666 0-365.334 0-548 0-0.848 0.492-1.638 1.232-2.552 1.442-54.098 12.498-83.436 49.37-83.446 104.962-0.010 52.656-0.002 105.314-0.002 157.97 0 193.63-0.090 387.26 0.070 580.89 0.036 43.034 19.724 74.526 58.4 93.506 14.698 7.212 30.474 10.514 47.532 8.69 0-32.226-0.158-63.522 0.042-94.818 0.218-34.156 26.014-60.506 59.996-60.556 129.308-0.196 258.618-0.196 387.928 0 33.994 0.052 59.698 26.316 59.978 60.56 0.228 27.992 0.052 55.99 0.054 83.984 0 3.554 0 7.108 0 10.522 55.062 5.818 105.824-41.090 105.878-97.892 0.238-250.286 0.204-500.572 0.004-750.858-0.036-46.588-33.576-86.542-79.382-96.344-2.212-0.472-4.334-1.362-6.5-2.058zM551.968 144.5c0 23.462 0 46.016 0 67.918 10.982 4.604 21.346 8.264 31.020 13.258 5.868 3.030 9.186 2.212 13.568-2.36 13.794-14.388 28.066-28.32 41.652-41.928 19.114 19.064 37.706 37.606 56.844 56.694-13.986 13.91-28.524 28.072-42.592 42.684-2.104 2.186-3.608 7.070-2.652 9.718 4.042 11.182 9.12 21.988 14.38 34.236 21.898 0 44.692 0 67.23 0 0 27.034 0 52.902 0 79.55-23.116 0-45.672 0-67.556 0-4.606 10.984-8.254 21.358-13.27 31.020-3.064 5.9-2.164 9.2 2.386 13.566 14.378 13.8 28.314 28.062 41.944 41.67-19.11 19.096-37.684 37.656-56.75 56.706-13.862-13.908-28.040-28.434-42.67-42.49-2.188-2.102-7.070-3.598-9.716-2.64-11.18 4.042-21.988 9.118-34.232 14.374 0 21.914 0 44.706 0 67.234-27.036 0-52.904 0-79.554 0 0-23.118 0-45.674 0-67.556-10.986-4.612-21.362-8.256-31.020-13.284-5.918-3.080-9.21-2.126-13.564 2.41-13.804 14.376-28.062 28.312-41.688 41.962-19.086-19.112-37.642-37.692-56.722-56.8 13.91-13.846 28.444-28.012 42.508-42.628 2.106-2.188 3.608-7.072 2.652-9.722-4.034-11.184-9.104-21.994-14.35-34.238-21.914 0-44.714 0-67.254 0 0-27.032 0-52.9 0-79.55 23.114 0 45.668 0 67.574 0 4.588-10.984 8.206-21.37 13.224-31.030 3.068-5.906 2.188-9.196-2.362-13.564-14.374-13.804-28.308-28.070-41.934-41.682 19.086-19.084 37.654-37.652 56.754-56.75 13.862 13.93 28.028 28.464 42.644 42.528 2.188 2.104 7.066 3.616 9.708 2.662 11.184-4.038 21.994-9.114 34.244-14.368 0-21.9 0-44.696 0-67.602 26.792 0.002 52.422 0.002 79.554 0.002zM314.52 884.154c35.744 0 70.93 0 107.192 0 0 25.46 0 50.232 0 75.558 60.484 0 119.886 0 180.018 0 0-24.896 0-49.424 0-75.018 36.13 0 71.56 0 107.618 0 0-33.82 0-66.57 0-99.866-131.582 0-262.94 0-394.828 0 0 32.864 0 65.38 0 99.326zM511.31 276.296c-48.602 0.26-87.588 40.084-87.304 89.18 0.278 47.892 40.498 87.26 88.668 86.79 48.866-0.476 87.766-40.204 87.3-89.156-0.456-48.112-40.25-87.074-88.664-86.814z" />
<glyph unicode="&#xe61f;" glyph-name="cem-23" d="M785.99-63.632c-182.666 0-365.334 0-548 0-0.848 0.492-1.638 1.232-2.552 1.442-54.098 12.498-83.436 49.37-83.446 104.962-0.010 52.656-0.002 105.314-0.002 157.97 0 193.63-0.090 387.26 0.070 580.89 0.036 43.034 19.724 74.526 58.4 93.506 14.698 7.212 30.474 10.514 47.532 8.69 0-32.226-0.158-63.522 0.042-94.818 0.218-34.156 26.014-60.506 59.996-60.556 129.308-0.196 258.618-0.196 387.928 0 33.994 0.052 59.698 26.316 59.978 60.56 0.228 27.992 0.052 55.99 0.054 83.984 0 3.554 0 7.108 0 10.522 55.062 5.818 105.824-41.090 105.878-97.892 0.238-250.286 0.204-500.572 0.004-750.858-0.036-46.588-33.576-86.542-79.382-96.344-2.212-0.474-4.334-1.364-6.5-2.058zM406.464 505.046c120.156 0 239.548 0 358.732 0 0 24.12 0 47.55 0 70.818-119.95 0-239.106 0-358.732 0 0-23.69 0-46.882 0-70.818zM765.274 332.802c0 24.202 0 47.632 0 70.786-120.11 0-239.502 0-358.742 0 0-23.976 0-47.168 0-70.786 119.692 0 238.848 0 358.742 0zM406.456 161.054c120.18 0 239.572 0 358.732 0 0 24.128 0 47.56 0 70.802-119.96 0-239.114 0-358.732 0 0-23.698 0-46.89 0-70.802zM329.522 575.808c-24.354 0-47.53 0-70.888 0 0-23.972 0-47.38 0-70.71 24.062 0 47.474 0 70.888 0 0 23.912 0 47.086 0 70.71zM329.154 332.582c0 23.714 0 47.354 0 71.112-23.746 0-47.156 0-70.402 0 0-24.092 0-47.506 0-71.112 23.694 0 46.628 0 70.402 0zM329.29 160.818c0 24.19 0 47.6 0 70.76-24.122 0-47.536 0-70.776 0 0-23.968 0-47.142 0-70.76 23.694 0 46.868 0 70.776 0zM314.38 785.070c0 33.096 0 65.61 0 99.198 35.796 0 71.224 0 107.364 0 0 25.584 0 50.112 0 75.366 60.126 0 119.528 0 180.018 0 0-24.646 0-49.416 0-74.89 36.254 0 71.44 0 107.426 0 0-33.458 0-66.212 0-99.674-131.1 0-262.46 0-394.808 0z" />
<glyph unicode="&#xe620;" glyph-name="cem-24" d="M292.558 309.468l-286.732 286.732v-573.464zM957.848 664.89h-883.332l441.664-441.666zM731.566 301.232l291.622-291.622v583.246zM662.876 232.542l-146.924-146.924-68.69 68.69 0.228 0.226-86.242 86.244-297.89-297.888h889.172zM512 960.448l-371.276-106.926h149.678v-112.522h443.196v112.522h149.678z" />
<glyph unicode="&#xe621;" glyph-name="cem-25" d="M290.558 307.468l-286.732 286.732v-573.464zM955.848 662.89h-883.332l441.664-441.666zM729.566 299.232l291.622-291.622v583.246zM660.876 230.542l-146.924-146.924-68.69 68.69 0.228 0.226-86.242 86.244-297.89-297.888h889.172zM512 740.552l371.276 106.926h-149.678v112.522h-443.196v-112.522h-149.678z" />
<glyph unicode="&#xe622;" glyph-name="cem-26" d="M418.352 459.4h110.1v-74.786h-110.1v74.786zM472.364 655.37h195.274v-52.112h-195.274v52.112zM472.364 238.182h195.274v-52.112h-195.274v52.112zM472.364 632.34h56.090v-423.784h-56.090v423.784zM374.694 385.672c-1.302 5.708-4.458 11.1-9.446 15.454-5.010 4.322-11.13 6.93-17.474 7.89l-101.996 19.738 29.51-19.586-46.586-146.032-26.23 108.47-26.246-108.472-46.566 146.028 29.496 19.586-101.996-19.738c-6.344-0.96-12.46-3.562-17.48-7.89-4.986-4.354-8.146-9.744-9.444-15.454l-30.236-132.828 57.046-19.796c18.938-19.688 71.95-34.168 135.532-35.548h19.774c63.582 1.378 116.588 15.86 135.532 35.548l57.048 19.796-30.238 132.834zM202.47 413.92l-23.512-8.416 23.512-33.898 23.514 33.898zM289.762 544.724c0 60.286-24.81 107.532-87.294 107.532-62.49 0-87.288-47.248-87.288-107.532-6.536-3.408-10.83-11.412-4.41-28.558 3.236-8.608 8.944-15.824 13.786-19.6 17.808-44.338 52.828-78.564 77.912-78.564s60.106 34.226 77.906 78.564c4.846 3.776 10.544 10.994 13.79 19.6 6.42 17.15 2.13 25.146-4.402 28.558zM995.412 645.84c-1.070 4.688-3.662 9.118-7.758 12.694-4.118 3.552-9.144 5.692-14.354 6.482l-83.786 16.214 24.24-16.090-38.27-119.96-21.548 89.104-21.558-89.106-38.252 119.96 24.23 16.090-83.786-16.214c-5.212-0.788-10.236-2.928-14.358-6.482-4.096-3.578-6.692-8.006-7.756-12.694l-24.84-109.116 46.862-16.262c15.556-16.172 59.106-28.070 111.336-29.202h16.242c52.232 1.13 95.776 13.030 111.336 29.202l46.866 16.262-24.846 109.118zM853.934 669.044l-19.314-6.914 19.314-27.844 19.316 27.844zM925.642 776.496c0 49.522-20.382 88.334-71.708 88.334-51.334 0-71.702-38.814-71.702-88.334-5.368-2.8-8.896-9.374-3.622-23.46 2.66-7.072 7.346-12.998 11.324-16.102 14.628-36.42 43.396-64.538 64.004-64.538s49.378 28.118 63.998 64.538c3.982 3.104 8.662 9.030 11.328 16.102 5.268 14.088 1.744 20.658-3.622 23.46zM995.412 203.016c-1.070 4.688-3.662 9.118-7.758 12.694-4.118 3.552-9.144 5.692-14.354 6.482l-83.786 16.214 24.24-16.090-38.27-119.96-21.548 89.104-21.558-89.106-38.252 119.96 24.23 16.090-83.786-16.214c-5.212-0.788-10.236-2.928-14.358-6.482-4.096-3.578-6.692-8.006-7.756-12.694l-24.84-109.116 46.862-16.262c15.556-16.172 59.106-28.070 111.336-29.202h16.242c52.232 1.13 95.776 13.030 111.336 29.202l46.866 16.262-24.846 109.118zM853.934 226.222l-19.314-6.914 19.314-27.846 19.316 27.846zM925.642 333.672c0 49.522-20.382 88.334-71.708 88.334-51.334 0-71.702-38.814-71.702-88.334-5.368-2.8-8.896-9.374-3.622-23.46 2.66-7.072 7.346-13 11.324-16.102 14.628-36.42 43.396-64.538 64.004-64.538s49.378 28.118 63.998 64.538c3.982 3.104 8.662 9.030 11.328 16.102 5.268 14.090 1.744 20.658-3.622 23.46z" />
<glyph unicode="&#xe623;" glyph-name="cem-27" d="M838.158 537.96h180.842v-180.842h-180.842v180.842zM838.158 245.422h180.842v-180.842h-180.842v180.842zM282.864 485.836h621.248v-76.592h-621.248v76.592zM838.158 830.5h180.842v-180.842h-180.842v180.842zM470.090 778.374h434.022v-76.592h-434.022v76.592zM470.090 193.296h434.022v-76.592h-434.022v76.592zM470.090 778.374h91.486v-661.67h-91.486v661.67zM8.41 622.532v-376.578h376.578v376.578h-376.578zM282.864 348.076h-172.332v172.332h172.332v-172.332z" />
<glyph unicode="&#xe624;" glyph-name="cem-28" d="M506.45 492.82h132.496v-89.998h-132.496v89.998zM571.448 728.654h234.994v-62.714h-234.994v62.714zM571.448 226.604h234.994v-62.714h-234.994v62.714zM571.448 700.94h67.498v-509.988h-67.498v509.988zM467.176 378.264c-1.614 7.072-5.522 13.75-11.702 19.144-6.208 5.356-13.788 8.586-21.648 9.774l-126.356 24.45 36.556-24.262-57.71-180.906-32.496 134.374-32.514-134.376-57.684 180.902 36.54 24.262-126.356-24.45c-7.86-1.188-15.436-4.414-21.654-9.774-6.176-5.394-10.090-12.072-11.7-19.144l-37.452-164.55 70.67-24.522c23.46-24.388 89.132-42.328 167.898-44.038h24.496c78.766 1.706 144.432 19.648 167.898 44.038l70.672 24.522-37.458 164.556zM253.822 413.258l-29.128-10.424 29.128-41.994 29.132 41.994zM361.962 575.3c0 74.682-30.736 133.21-108.14 133.21-77.412 0-108.132-58.532-108.132-133.21-8.096-4.224-13.416-14.136-5.464-35.378 4.010-10.664 11.078-19.602 17.078-24.28 22.060-54.926 65.444-97.326 96.518-97.326s74.462 42.4 96.51 97.326c6.004 4.678 13.062 13.618 17.082 24.28 7.952 21.248 2.638 31.152-5.452 35.378zM971.9 637.1l-39.428-39.43-108.43 108.43 39.428 39.43 69.002-69.002 86.466 86.466v40.552h-212.494v-212.496h212.494v93.086zM971.9 135.050l-39.428-39.43-108.43 108.43 39.428 39.428 69.002-69 86.466 86.466v40.55h-212.494v-212.494h212.494v93.086z" />
<glyph unicode="&#xe625;" glyph-name="cem-29" d="M1023.73 61.118c-173.524 0-347.048 0-521.286 0 0 43.932 0 87.35 0 132 173.766 0 347.526 0 521.286 0 0-44 0-88 0-132zM1023.73 717.118c-146.858 0-293.718 0-441.288 0 0 43.934 0 87.348 0 132 147.098 0 294.192 0 441.288 0 0-44 0-88 0-132zM1023.73 389.118c-80.2 0-160.398 0-241.298 0 0 43.942 0 87.342 0 132 80.426 0 160.862 0 241.298 0 0-44 0-88 0-132zM521.012 389.554c-173.888 0-347.044 0-520.742 0 0 43.62 0 86.81 0 130.784 173.236 0 346.63 0 520.742 0 0-43.154 0-86.58 0-130.784zM321.268 848.428c0-43.916 0-87.1 0-130.796-106.954 0-213.45 0-320.742 0 0 43.256 0 86.678 0 130.796 106.502 0 213.232 0 320.742 0zM386.166 661.834c0 81.21 0 161.708 0 242.746 43.612 0 86.796 0 130.772 0 0-80.556 0-161.292 0-242.746-43.138 0-86.556 0-130.772 0zM586.464 576.702c43.788 0 86.97 0 130.708 0 0-81.15 0-161.884 0-243.1-43.608 0-86.79 0-130.708 0 0 80.728 0 161.462 0 243.1zM437.036 5.576c-43.912 0-87.092 0-130.788 0 0 80.954 0 161.452 0 242.748 43.252 0 86.672 0 130.788 0 0-80.498 0-161.234 0-242.748zM241.284 192.412c0-43.87 0-87.052 0-130.762-80.274 0-160.106 0-240.748 0 0 43.21 0 86.63 0 130.762 79.794 0 159.862 0 240.748 0z" />
<glyph unicode="&#xe626;" glyph-name="cem-30" d="M5.19 487.836h261.808v-76.592h-261.808v76.592zM259 849.218h763.708v-188.736h-763.708v188.736zM5.19 780.374h261.808v-76.592h-261.808v76.592zM5.19 195.296h261.808v-76.592h-261.808v76.592zM5.192 780.374h76.592v-661.67h-76.592v661.67zM259 543.908v-188.736h765v188.736h-765zM947.364 411.244h-611.728v76.592h611.726v-76.592zM259 238.598v-188.736h765v188.736h-765zM947.364 105.934h-611.728v76.592h611.726v-76.592z" />
<glyph unicode="&#xe627;" glyph-name="cem-31" d="M477 711h70v-226h-70v226zM477 520h358v-70h-358v70zM986.012 475.746c0 85.080-22.592 164.782-61.75 233.816 19.384-0.39 36.382 4.51 48.264 16.262 29.66 29.748 18.472 90.414-23.2 144.964l9.496 9.584c12.272 12.186 12.272 32.176 0 44.404-12.228 12.228-32.132 12.228-44.448 0l-8.89-8.932c-55.982 45.14-119.726 58.106-150.34 27.448-12.272-12.272-17.258-30.008-16.304-50.346-67.778 37.206-145.616 58.498-228.44 58.498-73.11 0-142.146-16.956-203.982-46.486-1.344 15.22-6.202 28.62-15.958 38.334-29.834 29.834-91.064 18.43-145.918-23.98l-5.508 5.42c-12.272 12.228-32.176 12.228-44.448 0s-12.272-32.22 0-44.404l5.074-5.074c-44.534-55.722-57.024-118.902-26.582-149.43 6.764-6.634 15.48-10.798 25.108-13.442-40.068-69.728-63.398-150.384-63.398-236.636 0-156.282 75.67-294.438 191.97-381.122l-78.488-145.182 90.73-13.442 59.266 114.394c63.918-31.828 135.814-50.258 212.134-50.258s148.174 18.43 212.092 50.258l64.51-114.306 85.442 13.356-78.532 145.182c116.386 86.682 192.1 224.882 192.1 381.12zM512 102c-205.726 0-372.5 166.774-372.5 372.5s166.774 372.5 372.5 372.5 372.5-166.774 372.5-372.5-166.774-372.5-372.5-372.5z" />
<glyph unicode="&#xe628;" glyph-name="cem-32" d="M1022 799.736c0-88.511-71.753-160.264-160.264-160.264s-160.264 71.753-160.264 160.264c0 88.511 71.753 160.264 160.264 160.264s160.264-71.753 160.264-160.264zM160.264 960c-88.512 0-160.264-71.752-160.264-160.264s71.752-160.264 160.264-160.264 160.264 71.752 160.264 160.264-71.752 160.264-160.264 160.264zM160.264 706.472c-51.508 0-93.264 41.756-93.264 93.264s41.756 93.264 93.264 93.264 93.264-41.756 93.264-93.264-41.756-93.264-93.264-93.264zM861.736 256.528c-88.512 0-160.264-71.752-160.264-160.264s71.752-160.264 160.264-160.264 160.264 71.752 160.264 160.264-71.752 160.264-160.264 160.264zM861.736 3c-51.508 0-93.264 41.756-93.264 93.264s41.756 93.264 93.264 93.264 93.264-41.756 93.264-93.264-41.756-93.264-93.264-93.264zM690.264 786.448l-137.552 137.552v-85.092h-207.712v-104.92h207.712v-85.092zM861.736 271.368l137.552 137.552h-85.092v207.712h-104.92v-207.712h-85.092z" />
<glyph unicode="&#xe629;" glyph-name="cem-33" d="M0.024 46.954c0 0 54.046-0.192 67.032-0.192 0 153.764 0 306.536 0 460.408 28.542 0 55.994 0 84.162 0 0 42.306 0 83.51 0 125.81 90.186 0 179.628 0 270.162 0 0 84.542 0 167.984 0 251.218 69.64 0 206.83 0 206.83 0l-154.706-167.98c0 0 0-55.514 0-82.726 74.038 0 147.474 0 221.658 0 0 83.928 0 167.132 0 250.638 69.522 0 206.98 0 206.98 0l-154.57-167.692c0 0 0-55.63 0-84.164 38.772 0 76.888 0 115.726 0 0-42.306 0-83.512 0-125.81 27.52 0 54.304 0 81.81 0 0-153.638 0-306.172 0-459.702 17.306 0 78.868 0.224 78.868 0.224l0.048-42.462h-1024.046l0.046 42.43zM464.454 342.062c-98.85 0-196.924 0-294.76 0 0-98.778 0-196.856 0-294.776 98.63 0 196.47 0 294.76 0 0 98.36 0 196.2 0 294.776zM229.822 544.804c6.314 0 12.644-0.294 18.938 0.062 12.614 0.712 21.936 10.404 22.112 22.556 0.176 12.144-8.976 22.564-21.446 23.128-12.932 0.584-25.93 0.566-38.866 0.018-12.496-0.53-21.71-10.84-21.624-22.974 0.088-12.166 9.364-21.962 21.95-22.718 6.29-0.378 12.622-0.068 18.936-0.072zM547.78 296.802c6.314 0 12.644-0.288 18.938 0.060 12.624 0.7 21.954 10.362 22.154 22.514 0.2 12.146-8.938 22.594-21.402 23.166-12.932 0.594-25.93 0.566-38.866 0.026-12.504-0.522-21.734-10.804-21.668-22.934 0.064-12.154 9.344-21.992 21.908-22.758 6.288-0.38 12.622-0.064 18.936-0.074zM686.054 342.706c0-0.014 0-0.028 0-0.044-6.646 0-13.322 0.412-19.93-0.090-12.028-0.912-20.978-10.67-21.182-22.422-0.21-12.138 8.94-22.61 21.386-23.178 12.932-0.59 25.93-0.56 38.866-0.028 12.506 0.514 21.74 10.778 21.684 22.914-0.058 12.16-9.316 21.996-21.888 22.778-6.288 0.392-12.622 0.070-18.936 0.070zM821.654 296.848c6.646 0 13.32-0.394 19.93 0.086 12.044 0.872 21.026 10.562 21.282 22.32 0.266 12.144-8.832 22.68-21.274 23.278-12.93 0.622-25.928 0.568-38.866 0.050-12.54-0.5-21.794-10.684-21.796-22.822-0.002-12.134 9.27-22.078 21.788-22.872 6.288-0.398 12.622-0.068 18.936-0.040z" />
<glyph unicode="&#xe62a;" glyph-name="cem-34" d="M340.004 896.024c0-10.978 0.15-21.958-0.034-32.934-0.298-17.858-12.886-30.902-29.7-31.042-16.832-0.142-29.968 12.854-30.182 30.528-0.268 22.286-0.268 44.58 0 66.866 0.212 17.692 13.32 30.668 30.166 30.538 16.826-0.132 29.416-13.158 29.716-31.020 0.186-10.976 0.034-21.958 0.034-32.936zM480.024 896.316c-0.002 10.978-0.176 21.96 0.038 32.934 0.346 17.76 13.16 30.756 30.002 30.728 16.84-0.028 29.696-13.036 29.882-30.828 0.232-22.286 0.274-44.58-0.020-66.866-0.226-17.176-13.044-29.998-29.466-30.236-16.836-0.244-29.99 12.732-30.388 30.336-0.254 11.306-0.046 22.62-0.048 33.932zM740 895.874c0.002-10.978 0.162-21.96-0.034-32.934-0.318-17.804-13.024-30.834-29.846-30.892-16.832-0.060-29.836 12.948-30.038 30.678-0.252 22.286-0.276 44.58 0.010 66.866 0.226 17.636 13.462 30.6 30.312 30.388 16.438-0.206 29.136-13.006 29.542-30.172 0.268-11.306 0.052-22.622 0.054-33.934zM889.92 804.308c-0.042 59.060-51.632 105.54-109.914 98.81 0-12.732 0.012-25.616-0.002-38.502-0.042-41.268-30.458-72.64-70.362-72.584-39.234 0.054-69.578 31.562-69.632 72.316-0.016 12.906-0.002 25.814-0.002 39.186-20.17 0-39.368 0-60 0 0-13.846 0.076-27.698-0.014-41.55-0.23-35.422-25.552-64.202-61.006-69.436-33.15-4.894-67.348 16.498-75.698 49.838-3.724 14.872-2.406 31.016-3.244 46.59-0.246 4.594-0.038 9.212-0.038 14.428-20.146 0-39.58 0-60 0 0-13.57 0.032-26.81-0.006-40.050-0.114-40.314-31.002-71.496-70.62-71.322-38.798 0.17-69.276 31.61-69.368 71.578-0.030 12.97-0.004 25.942-0.004 39.648-18.334 2.378-35.482-0.636-51.508-8.442-37.166-18.102-58.132-48.19-58.214-89.504-0.512-256.96-0.358-513.92-0.158-770.88 0.038-46.616 33.562-86.54 79.38-96.35 2.214-0.474 4.336-1.366 6.502-2.062 196 0 392 0 588 0 2.166 0.696 4.288 1.584 6.494 2.058 46.186 9.884 79.394 50.012 79.422 97.35 0.148 256.294 0.178 512.586-0.008 768.88zM820.396 621.078c-68.83-82.342-137.994-164.408-207.056-246.556-0.702-0.834-1.616-1.488-2.66-2.432-69.91 40.35-139.716 80.64-210.046 121.234-36.838-43.89-73.054-87.012-109.23-130.164-14.76-17.606-29.504-35.228-44.12-52.954-11.1-13.464-29.246-15.906-42.688-5.51-13.348 10.322-16.008 29.12-4.918 42.65 27.888 34.018 56.232 67.662 84.47 101.39 32.198 38.46 64.596 76.756 96.592 115.384 4.666 5.632 7.958 6.254 14.34 2.538 64.594-37.622 129.39-74.896 194.134-112.26 2.632-1.518 5.304-2.968 8.286-4.636 24.724 29.462 49.208 58.64 73.692 87.816 32.784 39.068 65.61 78.098 98.322 117.226 9.258 11.074 19.992 18.114 35.092 13.944 21.142-5.838 29.82-30.886 15.79-47.67z" />
<glyph unicode="&#xe62b;" glyph-name="cem-35" d="M429.136 577.364c-89.454 0.514-177.42 11.030-262.334 40.57-46.206 16.074-90.172 36.656-125.614 71.628-23.28 22.968-39.476 49.47-36.918 83.97 2.12 28.594 16.93 50.85 36.504 70.174 35.416 34.962 79.268 55.784 125.5 71.82 86.54 30.016 176.108 40.85 267.316 40.588 77.328-0.222 153.53-9.044 227.968-30.526 49.526-14.292 96.944-33.404 138.154-65.324 23.838-18.464 43.814-40.246 52.332-70.012 8.858-30.96 0.158-58.57-18.774-83.454-21.252-27.934-49.482-47.242-80.244-63.052-58.066-29.844-120.22-47.040-184.534-55.618-46.136-6.154-92.714-9.008-139.094-13.334-0.088 0.858-0.176 1.714-0.262 2.57zM854.83 693.552c0-41.392 0.748-86.054-0.27-130.678-0.648-28.32-16.84-49.9-35.994-69.182-1.912-1.924-6.012-2.256-9.118-2.32-20.312-0.42-40.716 0.524-60.928-1.042-33.778-2.616-56.646-20.806-68.656-52.538-0.352-0.93-0.792-1.842-1.306-2.692-0.33-0.546-0.872-0.966-1.008 1.020-14.896 2.134-29.768 5.794-44.694 6.034-21.016 0.338-38.168-10.138-52.916-24.592-0.476-0.466-1.016-0.888-1.406-1.418-16.216-22.094-37.754-30.532-65.36-32.38-63.722-4.264-127.15-4.348-190.572 2.806-54.074 6.1-107.184 16.862-158.482 35.308-44.438 15.98-86.8 35.928-121.392 69.224-25.008 24.068-40.266 52.156-39.052 88.364 1.182 35.286 0.258 70.644 0.258 105.97 0 3.584 0 7.168 0 10.752 17.112-51.774 57.184-80.71 102.134-104.26 57.832-30.298 120.276-46.24 184.42-56.102 88.866-13.664 177.934-14.070 266.902-1.744 67.884 9.406 133.94 25.898 195.352 57.56 29.818 15.374 57.944 33.458 78.208 60.772 9.932 13.386 16.924 28.954 23.88 41.138zM4.704 303.95c16.56-53.776 56.77-82.556 101.732-106.060 58.14-30.392 120.934-46.18 185.368-56.134 56.12-8.67 112.606-11.382 169.314-9.682 6.572 0.198 9.622-1.136 11.804-8.232 8.326-27.070 27.030-44.374 54.832-53.242-13.414-25.87-13.568-51.82-0.334-78.678-15.932-1.396-30.724-3.232-45.568-3.908-96.716-4.402-192.322 2.462-285.736 29.696-48.828 14.236-95.64 33.098-136.246 64.598-25.704 19.938-46.972 43.44-54.112 76.61-1.18 5.486-1.672 11.218-1.694 16.84-0.156 40.308-0.116 80.616-0.1 120.926-0.002 1.808 0.354 3.616 0.74 7.266zM515.656 331.456c3.59-17.156 6.886-32.908 10.384-49.626-18.748-5.794-35.272-17.818-46.496-36.69-11.060-18.596-10.68-39.366-11.006-61.508-11.656 0-22.558 0.034-33.46-0.006-92.904-0.326-184.108 10.716-272.124 41.838-44.558 15.756-86.724 36.132-121.162 69.59-24.372 23.68-39.244 51.304-38.106 86.75 1.134 35.296 0.248 70.656 0.248 105.99 0 3.586 0 7.174 0 10.76 22.182-62.168 73.582-91.826 128.754-116.222 62.954-27.838 129.754-41.512 197.986-48.64 57.156-5.97 114.374-7.006 171.676-2.288 4.894 0.4 9.85 0.052 13.306 0.052zM784.158 353.812c-98.14 0-177.7-79.558-177.7-177.7s79.558-177.7 177.7-177.7 177.7 79.558 177.7 177.7-79.558 177.7-177.7 177.7zM784.158 81.522c-52.238 0-94.588 42.348-94.588 94.588s42.348 94.588 94.588 94.588 94.588-42.348 94.588-94.588c0-52.238-42.348-94.588-94.588-94.588zM747.052 412.342h74.21v-74.21h-74.21v74.21zM747.052 14.092h74.21v-74.21h-74.21v74.21zM946.18 213.216h74.21v-74.21h-74.21v74.21zM547.926 213.216h74.21v-74.21h-74.21v74.21zM924.963 264.445l-52.474 52.474 52.474 52.474 52.474-52.474-52.474-52.474zM643.356-17.16l-52.474 52.474 52.474 52.474 52.474-52.474-52.474-52.474zM872.493 35.307l52.474 52.474 52.474-52.474-52.474-52.474-52.474 52.474zM590.888 316.916l52.474 52.474 52.474-52.474-52.474-52.474-52.474 52.474z" />
<glyph unicode="&#xe62c;" glyph-name="cem-36" d="M481.2 422.068h-117.38l-227.812 347.97c-11.808 18.058-20.376 32.644-25.7 43.756h-1.738c2.084-18.526 3.124-47.116 3.124-85.778v-305.95h-108.694v537.934h125.020l219.478-338.248c14.586-22.46 23.496-36.698 26.742-42.716h1.738c-2.318 12.962-3.476 37.732-3.476 74.318v306.646h108.7l-0.002-537.932zM563.298 528.446h462.702v-106.38h-462.702v106.38zM563.298 771.48h462.702v-106.38h-462.702v106.38zM3 285.414h1023v-106.38h-1023v106.38zM3 42.38h1023v-106.38h-1023v106.38z" />
<glyph unicode="&#xe62d;" glyph-name="cem-37" d="M1.058 633.268c56.61 19.732 110.592 38.588 164.604 57.362 112.476 39.096 224.948 78.204 337.514 117.034 4.888 1.686 11.278 2.292 16.020 0.654 165.042-57.050 329.97-114.43 494.908-171.784 2.172-0.756 4.258-1.76 8.022-3.334-3.674-1.676-6.066-3.008-8.612-3.894-164.616-57.266-329.232-114.528-493.93-171.556-4.29-1.486-9.952-1.74-14.18-0.276-165.336 57.222-330.578 114.708-495.828 172.18-2.080 0.726-4.064 1.716-8.518 3.614zM1022.46 432.978c-4.65-1.832-7.54-3.088-10.506-4.12-163.656-56.924-327.306-113.866-491.046-170.548-4.88-1.688-11.274-2.246-16.020-0.604-165.022 57.040-329.93 114.41-494.85 171.754-2.172 0.756-4.256 1.76-8.030 3.34 3.68 1.674 6.072 3 8.614 3.886 51.504 17.954 102.976 36 154.624 53.534 4.784 1.624 11.154 1.252 16.016-0.426 107.518-37.1 214.904-74.59 322.438-111.642 5.086-1.752 11.844-1.676 16.948 0.084 107.532 37.062 214.924 74.532 322.424 111.692 4.34 1.5 9.964 2.242 14.134 0.822 52.89-18.010 105.624-36.48 158.39-54.852 1.752-0.612 3.424-1.45 6.864-2.92zM1022.942 232.74c-18.024-6.334-33.85-11.952-49.71-17.464-150.788-52.412-301.566-104.856-452.45-156.99-5.114-1.768-11.878-1.946-16.95-0.192-164.070 56.744-328.026 113.818-491.996 170.85-2.774 0.966-5.512 2.036-10.412 3.854 4.612 1.896 7.394 3.196 10.278 4.202 50.878 17.73 101.716 35.576 152.736 52.884 5.088 1.726 11.82 1.594 16.93-0.168 107.53-37.066 214.912-74.566 322.448-111.614 5.076-1.748 11.832-1.582 16.948 0.18 107.53 37.068 214.922 74.536 322.422 111.694 4.332 1.498 9.96 2.164 14.142 0.742 52.58-17.888 105.006-36.23 157.462-54.482 2.036-0.706 3.972-1.69 8.152-3.496z" />
<glyph unicode="&#xe62e;" glyph-name="cem-38" d="M1022.564 643.718c-47.050-16.402-91.596-31.97-136.168-47.46-121.904-42.364-243.804-84.738-365.782-126.884-4.642-1.604-10.654-2.554-15.066-1.028-166.282 57.532-332.452 115.392-498.636 173.212-1.232 0.428-2.448 0.902-6.306 2.33 4.794 1.888 7.512 3.070 10.304 4.042 164.302 57.156 328.598 114.324 492.976 171.262 4.3 1.49 9.96 1.836 14.176 0.376 165.338-57.212 330.582-114.696 495.83-172.166 2.11-0.732 4.124-1.74 8.672-3.684zM1022.768 443.732c-36.8-12.774-70.976-24.622-105.142-36.498-131.94-45.86-263.9-91.662-395.752-137.772-7.436-2.6-13.628-2.416-20.936 0.132-163.294 56.954-326.666 113.68-490.018 170.468-2.696 0.938-5.308 2.112-10.436 4.17 7.418 2.572 12.572 4.35 17.718 6.144 48.678 16.968 97.306 34.080 146.108 50.682 4.82 1.64 11.194 1.572 16.022-0.092 107.524-37.084 214.904-74.586 322.446-111.618 5.356-1.844 12.47-1.732 17.852 0.122 107.538 37.046 214.928 74.518 322.422 111.692 4.050 1.4 9.312 2.058 13.21 0.726 53.502-18.276 106.864-36.964 160.256-55.56 1.2-0.416 2.348-0.968 6.25-2.596zM671.556 241.19c0-14.812 0-28.722 0-42.634 0-22.99-0.198-45.982 0.136-68.966 0.086-5.95-1.688-8.696-7.482-10.676-49.092-16.776-98.036-33.984-147.12-50.786-3.404-1.166-7.918-1.122-11.328 0.060-165.918 57.498-331.77 115.18-497.624 172.86-1.762 0.612-3.446 1.452-6.808 2.888 4.11 1.738 6.632 2.978 9.266 3.896 51.192 17.834 102.352 35.766 153.676 53.214 4.824 1.64 11.198 1.602 16.024-0.062 107.522-37.082 214.9-74.584 322.44-111.616 5.36-1.846 12.452-1.732 17.85 0.092 46.314 15.644 92.42 31.902 138.6 47.94 3.718 1.292 7.532 2.316 12.37 3.79zM895.548 69.986c0 18.566 0 34.728 0 51.944-53.544 0-106.302 0-159.52 0 0 40.256 0 79.44 0 119.7 52.774 0 105.532 0 159.090 0 0 17.23 0 33.42 0 52.682 43.77-38.28 85.56-74.828 128.394-112.29-42.482-37.194-84.214-73.732-127.964-112.036z" />
<glyph unicode="&#xe62f;" glyph-name="cem-39" d="M1024.002 819.956c0-210.666 0-421.334 0-632-0.51-0.828-1.288-1.594-1.49-2.492-12.002-53.468-49.296-83.502-103.85-83.504-271.304-0.010-542.608-0.016-813.912 0.004-62.104 0.004-104.734 42.748-104.74 105.010-0.022 197.978-0.014 395.958 0.026 593.936 0.002 5.986-0.054 12.056 0.856 17.942 8.104 52.364 48.642 87.070 101.844 87.080 249.64 0.052 499.28 0.024 748.92 0.020 24.998 0 50.004 0.374 74.988-0.176 27.594-0.608 50.922-11.412 70.152-31.308 14.844-15.358 22.254-34.288 27.206-54.512zM513.092 833.956c-125.3 0-250.598 0.010-375.898-0.006-40.534-0.004-65.186-24.772-65.188-65.484-0.010-176.286-0.010-352.57 0-528.856 0.002-41.232 24.55-65.65 66.014-65.652 249.266-0.008 498.53-0.008 747.796 0 41.946 0.002 66.182 24.346 66.184 66.476 0.010 175.952 0.008 351.904 0 527.856-0.002 41.232-24.566 65.658-66.008 65.662-124.302 0.008-248.6 0.004-372.9 0.004zM511.24-10.040c-45.618 0.002-91.238-0.122-136.856 0.066-17.714 0.072-31.394 11.228-35.474 28.026-3.638 14.98 3.418 31.894 17.452 38.986 5.716 2.888 12.656 4.69 19.046 4.712 90.904 0.296 181.808 0.26 272.712 0.162 22.108-0.024 38.116-15.7 37.848-36.472-0.262-20.316-16.16-35.388-37.872-35.446-45.618-0.12-91.236-0.036-136.856-0.034zM511.992 221.956c-121.298 0-242.598 0-363.896 0-22.12 0-28.090 5.848-28.092 27.572-0.004 169.952-0.004 339.906 0.002 509.858 0 20.002 6.444 26.564 26.112 26.566 243.598 0.008 487.196 0.006 730.796 0.002 20.732 0 27.086-6.242 27.086-26.596 0.006-170.286 0.006-340.572 0-510.856 0-20.304-6.38-26.54-27.108-26.542-121.634-0.006-243.266-0.004-364.9-0.004zM408.478 608.492c119.006 0 236.826 0 354.874 0 0 23.968 0 47.396 0 70.752-118.71 0-236.768 0-354.874 0 0-23.908 0-47.098 0-70.752zM408.478 468.632c118.812 0 236.868 0 354.732 0 0 24.116 0 47.546 0 70.826-118.614 0-236.436 0-354.732 0 0-23.686 0-46.878 0-70.826zM763.57 399.236c-118.944 0-237 0-355.086 0 0-23.914 0-47.106 0-70.738 118.538 0 236.596 0 355.086 0 0 23.732 0 46.922 0 70.738zM260.446 608.664c24.214 0 47.626 0 70.76 0 0 24.13 0 47.544 0 70.76-23.976 0-47.152 0-70.76 0 0-23.702 0-46.876 0-70.76zM331.164 468.17c0 23.714 0 47.354 0 71.112-23.746 0-47.156 0-70.402 0 0-24.092 0-47.506 0-71.112 23.696 0 46.63 0 70.402 0zM260.612 399.766c0-24.266 0-47.674 0-71.112 24.026 0 47.438 0 70.604 0 0 24.118 0 47.532 0 71.112-23.724 0-46.662 0-70.604 0z" />
<glyph unicode="&#xe630;" glyph-name="cem-40" d="M663.26 728.866c0 76.87 0 152.788 0 226.376 75.112-75.112 151.336-151.336 226.376-226.376-73.234 0-149.322 0-226.376 0zM579.328 644.192c0 105.604 0 210.128 0 315.422-148.15 0-295.57 0-444.328 0 0-340.968 0-682.098 0-1023.228 253.334 0 506.666 0 760 0 0 235.574 0 471.146 0 707.806-105.422 0-210.184 0-315.672 0zM338.006 9.37h-151.246v257.732h54.908v-212.808h96.338v-44.924zM563.876 42.396c-23.352-25.016-53.936-37.52-91.76-37.52-36.938 0-66.946 12.118-90.016 36.356-23.074 24.234-34.608 55.432-34.608 93.592 0 40.376 11.786 73.236 35.358 98.584 23.57 25.346 54.712 38.020 93.426 38.020 36.826 0 66.472-12.258 88.934-36.772 22.46-24.516 33.696-56.018 33.696-94.508-0.004-40.156-11.68-72.738-35.030-97.752zM851.974 26.674c-25.182-14.534-56.128-21.796-92.844-21.796-41.042 0-73.434 11.536-97.17 34.608-23.738 23.072-35.606 54.63-35.606 94.674 0 40.6 13.060 73.626 39.184 99.084s60.536 38.186 103.242 38.186c27.508 0 51.524-3.882 72.044-11.646v-52.080c-19.964 11.648-44.37 17.47-73.208 17.47-24.85 0-44.982-8.098-60.398-24.292-15.42-16.198-23.128-37.548-23.128-64.058 0-26.956 6.96-47.976 20.882-63.060 13.92-15.088 32.916-22.628 56.986-22.628 14.31 0 26.012 2.216 35.108 6.654v52.91h-52.078v44.092h106.986v-128.118zM474.61 223.842c-21.52 0-38.464-7.986-50.832-23.958-12.37-15.974-18.552-36.664-18.552-62.062 0-25.070 6.044-45.564 18.136-61.48 12.090-15.918 28.674-23.876 49.75-23.876 21.518 0 38.268 7.624 50.248 22.878 11.98 15.25 17.972 35.744 17.972 61.48 0 26.842-5.824 48.056-17.472 63.642-11.648 15.58-28.064 23.376-49.25 23.376z" />
<glyph unicode="&#xe631;" glyph-name="cem-41" d="M459.392 420.638l-52.632-18.842 52.632-75.884 52.644 75.884zM654.812 713.462c0 134.96-55.542 240.726-195.42 240.726-139.894 0-195.404-105.774-195.404-240.726-14.628-7.634-24.242-25.546-9.872-63.932 7.246-19.272 20.018-35.424 30.858-43.878 39.866-99.256 118.264-175.876 174.422-175.876s134.56 76.624 174.406 175.876c10.854 8.456 23.604 24.612 30.87 43.878 14.366 38.394 4.762 56.298-9.86 63.932zM836.494 264.554c-77.898 0-141.048-63.15-141.048-141.048s63.15-141.048 141.048-141.048 141.048 63.15 141.048 141.048-63.15 141.048-141.048 141.048zM836.494 48.426c-41.464 0-75.078 33.614-75.078 75.078s33.614 75.078 75.078 75.078 75.078-33.614 75.078-75.078c0-41.464-33.614-75.078-75.078-75.078zM807.040 311.012h58.904v-58.904h-58.904v58.904zM807.040-5.096h58.904v-58.904h-58.904v58.904zM965.096 152.958h58.904v-58.904h-58.904v58.904zM648.986 152.958h58.904v-58.904h-58.904v58.904zM948.254 276.93l41.651-41.651-41.651-41.651-41.651 41.651 41.651 41.651zM724.733 53.408l41.651-41.651-41.651-41.651-41.651 41.651 41.651 41.651zM989.919 11.742l-41.651-41.651-41.651 41.651 41.651 41.651 41.651-41.651zM766.394 235.266l-41.651-41.651-41.651 41.651 41.651 41.651 41.651-41.651zM604.604 123.506c0 128.070 103.822 231.89 231.89 231.89 3 0 5.98-0.076 8.952-0.188l-0.498 2.186c-2.916 12.78-9.982 24.848-21.146 34.596-11.218 9.678-24.918 15.516-39.12 17.666l-228.336 44.184 66.062-43.846-104.286-326.912-58.722 242.828-58.754-242.836-104.25 326.912 66.032 43.846-228.334-44.182c-14.206-2.148-27.894-7.976-39.128-17.666-11.164-9.748-18.238-21.816-21.14-34.596l-67.692-297.358 127.706-44.316c42.392-44.074 161.072-76.494 303.408-79.58h44.268c57.77 1.25 111.636 7.334 158.090 17.070-6.904 22.482-11.154 46.116-12.49 70.526-14.428 30.222-22.512 64.054-22.512 99.776z" />
<glyph unicode="&#xe632;" glyph-name="cem-42" d="M434.29 155.274c-1.496 6.556-5.12 12.746-10.848 17.746-5.754 4.964-12.782 7.958-20.068 9.060l-117.13 22.666 33.888-22.492-53.496-167.698-30.122 124.564-30.14-124.566-53.474 167.696 33.874 22.492-117.13-22.666c-7.286-1.102-14.308-4.092-20.072-9.060-5.726-5-9.354-11.19-10.844-17.746l-34.724-152.538 65.51-22.732c21.748-22.608 82.626-39.238 155.64-40.822h22.708c73.016 1.582 133.886 18.214 155.64 40.822l65.514 22.732-34.726 152.542zM236.512 187.712l-27-9.662 27-38.928 27.006 38.928zM336.758 337.922c0 69.23-28.492 123.486-100.246 123.486-71.762 0-100.238-54.258-100.238-123.486-7.506-3.914-12.436-13.104-5.064-32.794 3.716-9.886 10.27-18.172 15.83-22.508 20.45-50.916 60.666-90.22 89.472-90.22s69.024 39.306 89.464 90.22c5.566 4.338 12.11 12.624 15.836 22.508 7.372 19.698 2.446 28.88-5.054 32.794zM983.088 155.274c-1.496 6.556-5.12 12.746-10.848 17.746-5.754 4.964-12.782 7.958-20.068 9.060l-117.13 22.666 33.888-22.492-53.496-167.698-30.122 124.564-30.14-124.566-53.474 167.696 33.874 22.492-117.13-22.666c-7.286-1.102-14.308-4.092-20.072-9.060-5.726-5-9.354-11.19-10.844-17.746l-34.726-152.538 65.512-22.732c21.748-22.608 82.626-39.238 155.64-40.822h22.708c73.016 1.582 133.886 18.214 155.64 40.822l65.514 22.732-34.726 152.542zM785.31 187.712l-27-9.662 27-38.928 27.006 38.928zM885.556 337.922c0 69.23-28.492 123.486-100.246 123.486-71.762 0-100.238-54.258-100.238-123.486-7.506-3.914-12.436-13.104-5.064-32.794 3.716-9.886 10.27-18.172 15.83-22.508 20.45-50.916 60.666-90.22 89.472-90.22s69.024 39.306 89.464 90.22c5.566 4.338 12.11 12.624 15.836 22.508 7.372 19.698 2.446 28.88-5.054 32.794zM708.69 650.864c-1.496 6.556-5.12 12.746-10.848 17.746-5.754 4.964-12.782 7.958-20.068 9.060l-117.13 22.666 33.888-22.492-53.496-167.698-30.122 124.564-30.14-124.566-53.474 167.696 33.874 22.492-117.13-22.666c-7.286-1.102-14.308-4.092-20.072-9.060-5.726-5-9.354-11.19-10.844-17.746l-34.722-152.538 65.51-22.732c21.748-22.608 82.626-39.238 155.64-40.822h22.708c73.016 1.582 133.886 18.214 155.64 40.822l65.514 22.732-34.728 152.542zM510.912 683.304l-27-9.664 27-38.93 27.004 38.93zM611.16 833.514c0 69.23-28.492 123.486-100.246 123.486-71.762 0-100.238-54.258-100.238-123.486-7.506-3.914-12.436-13.104-5.064-32.794 3.716-9.886 10.27-18.172 15.83-22.508 20.45-50.916 60.666-90.22 89.472-90.22s69.024 39.306 89.464 90.22c5.566 4.338 12.11 12.624 15.836 22.508 7.37 19.696 2.442 28.878-5.054 32.794z" />
<glyph unicode="&#xe633;" glyph-name="cem-43" d="M941.052 203.646c-0.032-18.962-0.060-36.928-0.092-57.022 11.186 0.93 22.762 1.888 33.706 2.796 0.006-20.506 0.010-38.742 0.016-58.42-10.614 0.598-21.904 1.236-34.028 1.92 0.782-11.6 1.464-21.73 2.204-32.71 13.162 0.372 28.696 0.814 43.362 1.23-0.012-20.392-0.022-38.596-0.032-57.84-14.286 0.36-29.546 0.75-47.154 1.196 0.358-12.506 0.92-23.67 0.942-34.832 0.038-20.084-12.31-33.932-29.9-33.96-17.734-0.032-30.078 13.676-30.094 33.792-0.060 73.992-0.032 147.984 0 221.976 0.002 3.656 0.35 7.312 0.568 11.556-34.95 11.086-60.632 32.238-75.202 65.66-10.64 24.406-12.17 49.614-5.162 75.264 14.146 51.768 62.468 86.344 116.348 83.39 53.104-2.914 97.208-42.772 105.976-95.132 8.070-48.194-16.272-107.612-81.458-128.864zM948.076 275.916c21.118 21.144 21.166 55.22 0.104 76.256-20.868 20.842-55.674 20.82-76.46-0.050-20.998-21.084-20.866-55.138 0.296-76.272 21.32-21.292 54.754-21.264 76.060 0.066zM456.96 426.898l-53.066-18.992 53.066-76.506 53.074 76.506zM653.976 722.114c0 136.060-55.996 242.688-197.016 242.688-141.034 0-197-106.636-197-242.688-14.75-7.696-24.442-25.754-9.954-64.454 7.306-19.428 20.182-35.712 31.114-44.234 40.19-100.068 119.23-177.314 175.842-177.314s135.658 77.246 175.826 177.314c10.938 8.522 23.796 24.81 31.12 44.234 14.488 38.712 4.806 56.754-9.932 64.454zM847.448 170.24c-55.904 24.192-95.040 79.794-95.040 144.586 0 38.126 13.546 73.088 36.084 100.34-1.194 0.234-2.388 0.482-3.59 0.662l-230.202 44.544 66.6-44.202-105.14-329.584-59.202 244.81-59.236-244.814-105.092 329.578 66.57 44.202-230.202-44.546c-14.32-2.164-28.122-8.042-39.45-17.806-11.252-9.828-18.382-21.994-21.316-34.878l-68.232-299.784 128.75-44.676c42.74-44.432 162.386-77.116 305.886-80.23h44.628c143.5 3.108 263.134 35.796 305.886 80.23l62.298 21.616v129.952z" />
<glyph unicode="&#xe634;" glyph-name="cem-44" d="M1024.016 166.080c-2.172-7.258-3.918-14.676-6.586-21.746-14.852-39.342-51.916-64.226-95.754-64.232-247.64-0.042-495.278-0.020-742.918-0.020-25.664 0-51.328-0.080-76.992 0.018-58.084 0.218-101.684 43.784-101.714 102-0.094 179.98-0.094 359.96 0 539.94 0.030 58.218 43.622 101.984 101.702 102.002 273.304 0.088 546.606 0.088 819.91-0.006 51.414-0.018 90.078-31.992 100.696-82.476 0.256-1.222 1.092-2.32 1.658-3.478-0.002-190.668-0.002-381.334-0.002-572.002zM513.018 752.080c-124.964 0-249.928 0.004-374.894-0.002-41.882-0.002-66.106-24.4-66.108-66.57-0.004-155.622-0.004-311.244 0-466.866 0.002-42.164 24.214-66.556 66.108-66.558 249.262-0.008 498.524-0.008 747.786 0 41.896 0.002 66.098 24.374 66.1 66.56 0.010 155.622 0.006 311.244 0.002 466.866-0.002 42.174-24.218 66.564-66.104 66.568-124.296 0.008-248.592 0.002-372.89 0.002zM572.308 243.942h-98.462l-31.726 97.094h-153.982l-31.18-97.094h-97.916l155.076 423.658h106.12l152.070-423.658zM420.786 410.78l-48.136 146.872c-3.102 9.298-5.292 21.606-6.564 36.922h-2.46c-1.094-12.402-3.556-24.342-7.384-35.83l-48.41-147.964h112.954zM624.548 528.114c13.674 7.658 31.954 13.854 54.836 18.598 22.878 4.74 42.438 7.112 58.668 7.112 84.602 0 126.906-42.392 126.906-127.178v-182.702h-83.968v44.036h-1.094c-20.606-34.284-50.782-51.42-90.528-51.42-28.628 0-51.556 8.158-68.788 24.478-17.23 16.316-25.846 38.518-25.846 66.6 0 57.982 34.55 91.712 103.656 101.196l83.144 11.214c0 35.188-18.324 52.786-54.972 52.786-36.102 0-70.11-10.94-102.016-32.82v68.1zM724.376 380.968c-31.91-4.196-47.864-18.598-47.864-43.212 0-11.308 3.872-20.424 11.624-27.35 7.746-6.932 18.188-10.394 31.316-10.394 18.050 0 32.91 6.38 44.578 19.146 11.668 12.76 17.504 28.624 17.504 47.59v21.606l-57.158-7.386z" />
<glyph unicode="&#xe635;" glyph-name="cem-45" d="M0.442 66.204c0 80.656 0 161.314 0 241.97 2.3-0.134 4.612-0.48 6.902-0.37 92.21 4.388 162.81 96.466 144.088 187.874-15.202 74.216-80.376 129.664-150.988 128.456 0 71.99 0 143.982 0 215.972 215.156 0 430.312 0 646.6 0 0-63.418 0-125.528 0-187.312 17.614 0 34.084 0 51.34 0 0 62.664 0 124.512 0 186.74 108.92 0 217.022 0 325.128 0 0-71.984 0-143.398 0-214.76-80.392-5.1-143.574-65.87-150.604-145.614-3.174-35.992 5.234-69.63 25.304-99.772 29.814-44.774 72.444-68.192 125.348-72.448 0-80.714 0-160.51 0-240.262-108.624 0-216.49 0-325.504 0 0 62.568 0 124.672 0 187.034-17.622 0-34.088 0-51.714 0 0-62.7 0-124.792 0-187.512-216.078 0.004-430.988 0.004-645.9 0.004zM697.724 359.544c0 62.758 0 124.556 0 186.904-17.136 0-33.848 0-50.712 0 0-62.616 0-124.404 0-186.904 16.872 0 33.316 0 50.712 0z" />
<glyph unicode="&#xe636;" glyph-name="cem-46" d="M0.442 66.204c0 80.656 0 161.314 0 241.97 2.3-0.134 4.612-0.48 6.902-0.37 92.21 4.388 162.81 96.466 144.088 187.874-15.202 74.216-80.376 129.664-150.988 128.456 0 71.99 0 143.982 0 215.972 215.156 0 430.312 0 646.6 0 0-63.418 0-125.528 0-187.312 17.614 0 34.084 0 51.34 0 0 62.664 0 124.512 0 186.74 108.92 0 217.022 0 325.128 0 0-71.984 0-143.398 0-214.76-80.392-5.1-143.574-65.87-150.604-145.614-3.174-35.992 5.234-69.63 25.304-99.772 29.814-44.774 72.444-68.192 125.348-72.448 0-80.714 0-160.51 0-240.262-108.624 0-216.49 0-325.504 0 0 62.568 0 124.672 0 187.034-17.622 0-34.088 0-51.714 0 0-62.7 0-124.792 0-187.512-216.078 0.004-430.988 0.004-645.9 0.004zM697.724 359.544c0 62.758 0 124.556 0 186.904-17.136 0-33.848 0-50.712 0 0-62.616 0-124.404 0-186.904 16.872 0 33.316 0 50.712 0z" />
<glyph unicode="&#xe637;" glyph-name="cem-47" d="M785.99-63.632c-182.666 0-365.334 0-548 0-0.848 0.492-1.638 1.232-2.552 1.442-54.098 12.498-83.436 49.37-83.446 104.962-0.010 52.656-0.002 105.314-0.002 157.97 0 193.63-0.090 387.26 0.070 580.89 0.036 43.034 19.724 74.526 58.4 93.506 14.698 7.212 30.474 10.514 47.532 8.69 0-32.226-0.158-63.522 0.042-94.818 0.218-34.156 26.014-60.506 59.996-60.556 129.308-0.196 258.618-0.196 387.928 0 33.994 0.052 59.698 26.316 59.978 60.56 0.228 27.992 0.052 55.99 0.054 83.984 0 3.554 0 7.108 0 10.522 55.062 5.818 105.824-41.090 105.878-97.892 0.238-250.286 0.204-500.572 0.004-750.858-0.036-46.588-33.576-86.542-79.382-96.344-2.212-0.474-4.334-1.364-6.5-2.058zM765.38 335.056c0 51.354 0 101.068 0 150.198-97.186 0-193.792 0-290.274 0 0-50.874 0-100.084 0-150.198 96.848 0 193.262 0 290.274 0zM257.69 47c170.25 0 339.384 0 508.188 0 0 72.246 0 142.408 0 212-169.938 0-338.734 0-508.188 0 0-70.958 0-140.402 0-212zM765 563c0 26.010 0 51.94 0 78-23.746 0-483.002 0-506.248 0 0-26.426 0-52.108 0-78 23.694 0 482.474 0 506.248 0zM406.638 337.65c0 50.59 0 99.548 0 147.984-50.448 0-99.414 0-148.018 0 0-50.126 0-98.59 0-147.984 49.552 0 98.018 0 148.018 0zM314.38 785.070c0 33.096 0 65.61 0 99.198 35.796 0 71.224 0 107.364 0 0 25.584 0 50.112 0 75.366 60.126 0 119.528 0 180.018 0 0-24.646 0-49.416 0-74.89 36.254 0 71.44 0 107.426 0 0-33.458 0-66.212 0-99.674-131.1 0-262.46 0-394.808 0z" />
<glyph unicode="&#xe638;" glyph-name="cem-48" d="M973.684 53.344c-1.958-6.544-3.532-13.234-5.938-19.608-13.392-35.474-46.812-57.912-86.342-57.918-223.296-0.038-446.59-0.018-669.886-0.018-23.142 0-46.282-0.072-69.424 0.016-52.374 0.196-91.688 39.48-91.716 91.974-0.084 162.288-0.084 324.574 0 486.862 0.028 52.494 39.334 91.958 91.704 91.974 246.438 0.080 492.872 0.080 739.31-0.006 46.36-0.016 81.224-28.848 90.798-74.368 0.23-1.102 0.984-2.092 1.494-3.136 0-171.924 0-343.848 0-515.772zM512.918 581.738c-112.68 0-225.36 0.004-338.040-0.002-37.764-0.002-59.608-22.002-59.61-60.026-0.004-140.324-0.004-280.648 0-420.972 0.002-38.020 21.834-60.014 59.61-60.016 224.758-0.008 449.518-0.008 674.276 0 37.778 0.002 59.6 21.978 59.602 60.016 0.010 140.324 0.006 280.648 0.002 420.972-0.002 38.028-21.838 60.020-59.606 60.024-112.078 0.010-224.154 0.004-336.234 0.004zM566.38 123.552h-88.782l-28.608 87.55h-138.846l-28.114-87.55h-88.292l139.832 382.012h95.688l137.122-382.012zM429.752 273.988l-43.404 132.434c-2.798 8.384-4.772 19.482-5.918 33.292h-2.218c-0.986-11.182-3.206-21.95-6.658-32.308l-43.652-133.418h101.85zM613.484 379.788c12.33 6.906 28.812 12.492 49.446 16.77 20.63 4.274 38.266 6.412 52.9 6.412 76.286 0 114.43-38.224 114.43-114.676v-164.742h-75.714v39.708h-0.986c-18.58-30.914-45.79-46.366-81.628-46.366-25.814 0-46.488 7.356-62.026 22.072-15.536 14.712-23.306 34.732-23.306 60.052 0 52.282 31.154 82.696 93.466 91.248l74.97 10.112c0 31.728-16.522 47.596-49.568 47.596-32.554 0-63.218-9.864-91.988-29.594l0.004 61.408zM703.498 247.108c-28.774-3.784-43.158-16.77-43.158-38.964 0-10.196 3.492-18.416 10.482-24.662 6.984-6.25 16.4-9.372 28.238-9.372 16.276 0 29.674 5.752 40.196 17.264 10.52 11.506 15.784 25.81 15.784 42.912v19.482l-51.542-6.66zM896.054 713.986c0 18.566 0 34.728 0 51.944-53.544 0-842.836 0-896.054 0 0 40.256 0 79.44 0 119.7 52.774 0 842.066 0 895.624 0 0 17.23 0 33.42 0 52.682 43.77-38.28 85.56-74.828 128.394-112.29-42.482-37.194-84.214-73.732-127.964-112.036z" />
<glyph unicode="&#xe639;" glyph-name="cem-49" d="M785.99-63.668c-182.666 0-365.334 0-548 0-0.848 0.492-1.638 1.232-2.552 1.442-54.098 12.498-83.436 49.37-83.446 104.962-0.010 52.656-0.002 105.314-0.002 157.97 0 193.63-0.090 160.668 0.070 354.298 0.036 43.034 52.258 102.196 105.932 102.196s458.988-0.308 507.998-0.308 105.824-41.090 105.878-97.892c0.238-250.286 0.204-273.98 0.004-524.266-0.036-46.588-33.576-86.542-79.382-96.344-2.212-0.474-4.334-1.362-6.5-2.058zM575.968 447.042c-77.306-77.31-154.946-154.956-231.83-231.846 26.652-26.68 54.116-54.174 80.314-80.4 67.73 67.734 144.246 144.256 231.626 231.642-26.38 26.54-53.542 53.87-80.11 80.604zM739.958 448.692c-27.114 27.134-54.548 54.588-80.174 80.234-16.452-16.432-33.498-33.458-48.984-48.926 26.082-26.322 53.17-53.656 79.81-80.542 16.408 16.37 33.338 33.26 49.348 49.234zM391.436 100.376c-27.506 27.516-54.212 54.232-81.392 81.424-9.144-35.76-18.412-71.998-27.992-109.464 37.924 9.722 73.874 18.938 109.384 28.040zM896.054 713.986c0 18.566 0 34.728 0 51.944-53.544 0-842.836 0-896.054 0 0 40.256 0 79.44 0 119.7 52.774 0 842.066 0 895.624 0 0 17.23 0 33.42 0 52.682 43.77-38.28 85.56-74.828 128.394-112.29-42.482-37.194-84.214-73.732-127.964-112.036z" />
<glyph unicode="&#xe63a;" glyph-name="cem-50" d="M512 484.552l371.276 106.926h-149.678v368.522h-443.196v-368.522h-149.678zM0 321v-385h1024v385h-1024zM533 63.5c-35.898 0-65 29.102-65 65s29.102 65 65 65 65-29.102 65-65-29.102-65-65-65zM726.5 63.5c-35.898 0-65 29.102-65 65s29.102 65 65 65 65-29.102 65-65-29.102-65-65-65zM920 63.5c-35.898 0-65 29.102-65 65s29.102 65 65 65 65-29.102 65-65-29.102-65-65-65z" />
<glyph unicode="&#xe63b;" d="M512 960l-371.276-106.926h149.678v-368.522h443.196v368.522h149.678z" />
<glyph unicode="&#xe63c;" d="M0 321v-385h1024v385h-1024z" />
<glyph unicode="&#xe63d;" d="M502.682 2.982h-58.344l-18.798 57.534h-91.242l-18.476-57.534h-58.020l91.89 251.038h62.88l90.11-251.038zM412.898 101.84l-28.524 87.030c-1.838 5.51-3.134 12.802-3.888 21.876h-1.458c-0.648-7.348-2.106-14.424-4.376-21.23l-28.686-87.676h66.932z" />
<glyph unicode="&#xe63e;" d="M534.446 2.982v251.036h86.706c89.134 0 133.704-40.788 133.704-122.358 0-38.79-12.48-69.932-37.438-93.432-24.958-23.498-57.156-35.248-96.59-35.248h-86.382zM587.926 210.262v-163.524h29.172c25.388 0 45.322 7.56 59.802 22.69 14.476 15.124 21.716 35.598 21.716 61.422 0 24.958-7.564 44.43-22.69 58.424-15.128 13.99-34.792 20.988-58.992 20.988h-29.008z" />
<glyph unicode="&#xe800;" glyph-name="cem-52" d="M58 817.954h74v-881.954h-74v881.954zM0 10h1024v-74h-1024v74zM477 817.954h74v-881.954h-74v881.954zM65.75 817.954h462v-74h-462v74zM637 421h74v-482h-74v482zM900 421h74v-482h-74v482zM659 421h300v-74h-300v74zM161.058 958.848v-207.848h287.5v207.848h-287.5zM401.176 785.256h-192.734v139.336h192.734v-139.336zM189.308 659.726h231v-66.954h-231v66.954zM764.654 312.112h81.692v-66.954h-81.692v66.954zM764.654 207.034h81.692v-66.954h-81.692v66.954zM764.654 101.954h81.692v-66.954h-81.692v66.954zM189.308 493.544h231v-66.954h-231v66.954zM189.308 327.362h231v-66.954h-231v66.954zM189.308 161.18h231v-66.954h-231v66.954z" />
<glyph unicode="&#xe801;" glyph-name="cem-53" d="M1017.662 568.202c-29.948-29.908-59.622-59.544-89.24-89.122-115.694 111.086-254.848 164.934-414.68 163.284-159.416-1.646-298.202-57.086-413.766-167.568-30.852 30.798-61.716 61.608-92.582 92.42 258.424 263.414 730.382 282.704 1010.268 0.986zM851.85 402.382c-30.45-30.422-60.11-60.058-89.762-89.682-69.5 64.044-153.598 91.788-246.496 90.422-93.446-1.376-174.284-38.352-244.146-98.904-30.488 30.43-61.322 61.204-92.946 92.768 12.156 9.984 24.144 20.622 36.932 30.196 56.978 42.664 121.132 69.294 190.42 84.22 44.998 9.694 90.544 13.726 136.492 11.852 98.012-3.998 188.946-30.146 269.202-88.286 14.012-10.152 26.978-21.754 40.304-32.586zM423.166 188.43c0.056 49.594 40.060 89.392 89.724 89.26 49.268-0.13 89.018-40.19 88.9-89.594-0.118-49.17-40.272-89.116-89.55-89.086-49.26 0.032-89.13 40.056-89.074 89.42z" />
<glyph unicode="&#xe802;" glyph-name="cem-54" d="M329.868 794.508c16.278-2.416 30.46-4.546 44.654-6.618 23.172-3.384 46.37-6.596 69.508-10.186 5.542-0.86 9.342 0.34 13.406 4.466 14 14.208 28.234 28.214 42.934 41.694 9.438 8.654 20.232 15.546 33.11 18.324 12.958 2.796 24.448-2.182 32.9-14.264 7.246-10.358 7.452-21.184-0.072-32.428-3.196-4.778-7.202-9.080-11.234-13.214-5.624-5.764-11.62-11.166-18.916-18.112 17.55-1.626 32.876-3.090 48.208-4.458 40.896-3.65 81.812-7.076 122.678-11.046 7.61-0.74 12.798 1.034 18.25 6.572 32.56 33.080 64.976 66.336 98.526 98.396 39.466 37.714 84.45 68.068 132.77 93.29 9.23 4.818 20.014 7.068 30.346 9.234 8.936 1.874 16.156-2.288 21.394-9.904 8.272-12.026 9.826-25.452 5.196-38.566-5.204-14.74-11.362-29.47-19.406-42.82-19.628-32.578-45.328-60.468-71.96-87.392-37.21-37.62-74.73-74.936-112.25-112.252-3.252-3.234-4.622-6.362-4.2-10.95 4.558-49.664 8.958-99.344 13.394-149.020 0.7-7.83 1.37-15.662 2.198-25.166 3.402 3.304 5.9 5.814 8.486 8.226 7.286 6.794 14.114 14.21 22.038 20.164 11.314 8.5 22.924 8.236 33.554 0.752 12.588-8.864 18.488-20.898 13.542-34.12-4.216-11.27-10.198-22.542-17.91-31.696-13.268-15.752-28.548-29.802-42.816-44.726-1.716-1.794-3.648-4.76-3.356-6.89 5.326-38.806 10.98-77.566 16.714-117.384 2.040 1.63 3.452 2.576 4.648 3.744 7.97 7.78 15.608 15.928 23.898 23.346 12.46 11.15 24.582 12.208 36.702 3.99 15.352-10.412 22.242-25.872 15.722-40.47-4.238-9.488-10.822-18.354-17.93-26.046-14.478-15.67-29.952-30.426-45.178-45.394-2.926-2.876-3.848-5.502-3.246-9.724 8.3-58.328 17.142-116.632 16.352-175.786-0.138-10.376-1.666-20.772-3.13-31.078-1.29-9.078-6.314-16.464-14.79-19.732-10.254-3.952-20.95-7.56-31.766-9.052-13.618-1.878-22.482 3.682-26.996 16.762-6.186 17.92-11.8 36.154-15.976 54.632-13.834 61.212-34.23 120.356-56.722 178.72-25.482 66.126-52.514 131.662-79.524 197.186-5.792 14.050-13.762 27.334-21.846 40.272-9.822 15.72-20.406 17.67-35.452 6.516-11.898-8.82-23.184-18.58-34.032-28.684-39.9-37.172-78.682-75.592-119.492-111.728-30.518-27.024-63.344-51.464-95.552-76.53-5.408-4.208-7.172-8.098-6.218-14.418 4.32-28.652 8.6-57.31 12.586-86.008 2.742-19.744 5.104-39.544 7.396-59.348 1.676-14.476-1.534-28.078-11.050-39.094-10.56-12.224-21.696-24.112-33.752-34.828-8.376-7.446-10.428-6.45-17.15 2.56-17.454 23.388-29.87 49.632-41.766 76.046-12.556 27.878-24.308 56.124-36.006 84.376-2.148 5.186-5.234 8.002-10.158 10.276-43.96 20.304-87.9 40.656-131.618 61.47-10.836 5.16-20.788 12.156-31.26 18.108-5.020 2.854-5.472 6.592-2.59 10.938 3.064 4.622 6.092 9.402 9.918 13.356 6.44 6.658 13.398 12.828 20.316 19.006 15.722 14.038 34.054 18.896 54.844 15.758 31.86-4.81 63.752-9.394 95.658-13.886 14.92-2.1 29.882-3.96 44.872-5.434 2.65-0.26 6.738 1.080 8.144 3.090 44.038 63.020 96.542 118.768 149.282 174.314 17.576 18.51 35.718 36.498 52.852 55.404 7.554 8.334 14.094 17.89 19.56 27.742 7.576 13.654 5.978 21.678-7.494 29.198-23.626 13.188-47.584 26.106-72.436 36.72-96.56 41.24-194.594 78.686-295.214 108.924-27.928 8.392-56.556 14.426-84.762 21.924-8.018 2.132-15.802 5.316-23.472 8.542-7.986 3.358-12.252 10.018-12.76 18.462-0.372 6.18-0.178 12.586 1.034 18.636 5.54 27.666 15.77 36.132 43.856 37.914 34.912 2.216 69.574-0.994 104.154-4.872 29.256-3.28 58.374-7.772 87.596-11.384 2.654-0.328 6.36 1.106 8.322 3.014 15.97 15.534 31.54 31.476 47.44 47.082 8.5 8.342 17.73 15.772 29.99 17.9 13.864 2.406 28.618-5.718 36.656-20.064 6.142-10.964 4.432-22.646-5.356-33.898-4.256-4.894-8.972-9.396-13.6-13.956-4.444-4.382-9.046-8.604-15.19-14.42z" />
<glyph unicode="&#xe803;" glyph-name="cem-55" d="M2.4-58.4c6.74 20.768 13.13 40.478 19.534 60.184 22.008 67.722 43.982 135.456 66.142 203.128 1.19 3.632 3.398 7.318 6.094 10.018 203.226 203.526 406.55 406.958 609.872 610.394 1.41 1.41 2.9 2.742 3.722 3.514 60.54-60.46 120.894-120.73 181.692-181.448-0.852-0.94-2.402-2.802-4.108-4.51-202.962-203.080-405.928-406.158-609.004-609.126-3.034-3.034-7.168-5.534-11.25-6.87-85.072-27.84-170.208-55.478-255.338-83.144-2.052-0.666-4.146-1.21-7.356-2.14zM224.43 67.644c-31.092 33.1-61.086 65.032-91.9 97.838-14.294-45.834-28.218-90.488-42.57-136.51 45.55 13.1 89.27 25.674 134.47 38.672zM768.674 891.812c14.964 13.604 29.098 28.832 45.532 40.94 46.812 34.49 97.344 32.798 142.812-3.362 19.234-15.298 35.756-33.1 47.54-54.86 17.76-32.796 19.016-66.38 1.906-99.514-7.058-13.668-16.496-26.37-26.378-38.238-8.594-10.322-19.34-18.854-28.514-27.586-60.668 60.574-121.006 120.82-182.898 182.62z" />
<glyph unicode="&#xe804;" glyph-name="cem-56" d="M958.85 399.366c-46.89 46.98-93.506 93.688-140.648 140.922 1.542 0.136 2.25 0.252 2.96 0.252 12.356 0.012 44.712 0.060 57.068-0.064 1.358-0.014 3.056-0.678 4.010-1.628 46.026-45.884 91.992-91.83 137.932-137.802 0.75-0.75 1.534-1.908 1.548-2.884 0.12-8.84 0.070-33.68 0.070-42.718-338.786 0-677.402 0-1016.212 0 0 9.164 0 34.35 0 43.924 324.374-0.002 628.744-0.002 953.272-0.002z" />
<glyph unicode="&#xe805;" glyph-name="cem-57" d="M741.22 957.4c24.91-24.92 49.976-49.996 75.122-75.152-150.064-150.108-300.234-300.32-450.616-450.744 150.020-138.892 299.762-277.526 449.184-415.864-25.066-25.090-50.078-50.126-75.398-75.468-177.028 160.962-354.544 322.366-531.856 483.586 177.94 177.964 355.79 355.84 533.564 533.642z" />
<glyph unicode="&#xe806;" glyph-name="cem-58" d="M418.064 796.28c-2.31-70.624-4.604-140.786-6.908-211.24 206.466 0 412.688 0 619.138 0 0-17.738 0-35.192 0-52.892-343.228 0-686.528 0-1030.222 0 0 1.032 0 2.052 0 3.072 0 15.19 0.076 30.38-0.070 45.568-0.026 2.724 0.656 4.108 3.218 5.402 60.618 30.598 121.176 61.314 181.74 92.014 76.504 38.782 153.006 77.572 229.51 116.356 1.020 0.518 2.062 0.99 3.594 1.72zM0.184 310.842c0 17.942 0 35.322 0 52.864 343.42 0 686.722 0 1030.18 0 0-17.47 0-34.85 0-52.406-139.072-70.42-278.266-140.902-417.852-211.58 2.312 70.618 4.606 140.692 6.912 211.122-206.398 0-412.69 0-619.24 0z" />
</font>
</defs>
</svg>
